<svg xmlns="http://www.w3.org/2000/svg" xmlns:xlink="http://www.w3.org/1999/xlink" width="120" zoomAndPan="magnify" viewBox="0 0 90 30.000001" height="40" preserveAspectRatio="xMidYMid meet" version="1.2"><defs><clipPath id="a18f7f7841"><path d="M 1.453125 0 L 88.546875 0 L 88.546875 29.03125 L 1.453125 29.03125 Z M 1.453125 0 "/></clipPath></defs><g id="586209a402"><g clip-rule="nonzero" clip-path="url(#a18f7f7841)"><path style=" stroke:none;fill-rule:nonzero;fill:#ffffff;fill-opacity:1;" d="M 1.453125 0 L 88.546875 0 L 88.546875 29.03125 L 1.453125 29.03125 Z M 1.453125 0 "/><path style=" stroke:none;fill-rule:nonzero;fill:#c62828;fill-opacity:1;" d="M 1.453125 0 L 88.546875 0 L 88.546875 29.03125 L 1.453125 29.03125 Z M 1.453125 0 "/></g><g style="fill:#ffffff;fill-opacity:1;"><g transform="translate(38.082492, 19.596776)"><path style="stroke:none" d="M 4.296875 0.109375 C 3.796875 0.109375 3.304688 0.015625 2.828125 -0.171875 C 2.347656 -0.359375 1.910156 -0.644531 1.515625 -1.03125 C 1.128906 -1.425781 0.828125 -1.925781 0.609375 -2.53125 C 0.390625 -3.132812 0.28125 -3.859375 0.28125 -4.703125 C 0.28125 -5.847656 0.488281 -6.832031 0.90625 -7.65625 C 1.332031 -8.476562 1.921875 -9.117188 2.671875 -9.578125 C 3.429688 -10.046875 4.300781 -10.28125 5.28125 -10.28125 C 5.875 -10.28125 6.472656 -10.207031 7.078125 -10.0625 C 7.691406 -9.914062 8.207031 -9.738281 8.625 -9.53125 C 8.8125 -9.394531 8.898438 -9.191406 8.890625 -8.921875 C 8.878906 -8.785156 8.859375 -8.601562 8.828125 -8.375 C 8.796875 -8.144531 8.765625 -7.910156 8.734375 -7.671875 C 8.703125 -7.441406 8.679688 -7.242188 8.671875 -7.078125 C 8.660156 -6.910156 8.59375 -6.816406 8.46875 -6.796875 C 8.34375 -6.773438 8.222656 -6.835938 8.109375 -6.984375 C 7.796875 -7.378906 7.421875 -7.707031 6.984375 -7.96875 C 6.554688 -8.226562 5.976562 -8.359375 5.25 -8.359375 C 4.769531 -8.359375 4.320312 -8.222656 3.90625 -7.953125 C 3.488281 -7.679688 3.15625 -7.28125 2.90625 -6.75 C 2.664062 -6.21875 2.546875 -5.5625 2.546875 -4.78125 C 2.546875 -4.050781 2.65625 -3.46875 2.875 -3.03125 C 3.101562 -2.59375 3.410156 -2.28125 3.796875 -2.09375 C 4.179688 -1.914062 4.597656 -1.828125 5.046875 -1.828125 C 5.515625 -1.828125 5.914062 -1.925781 6.25 -2.125 C 6.582031 -2.320312 6.835938 -2.582031 7.015625 -2.90625 C 7.191406 -3.238281 7.28125 -3.597656 7.28125 -3.984375 C 7.28125 -4.335938 7.242188 -4.613281 7.171875 -4.8125 C 7.097656 -5.007812 6.992188 -5.210938 6.859375 -5.421875 C 6.785156 -5.515625 6.769531 -5.613281 6.8125 -5.71875 C 6.851562 -5.832031 6.945312 -5.890625 7.09375 -5.890625 C 7.8125 -5.898438 8.53125 -5.898438 9.25 -5.890625 C 9.46875 -5.890625 9.585938 -5.773438 9.609375 -5.546875 C 9.679688 -4.710938 9.742188 -3.875 9.796875 -3.03125 C 9.859375 -2.1875 9.882812 -1.304688 9.875 -0.390625 C 9.875 -0.148438 9.753906 -0.015625 9.515625 0.015625 C 9.273438 0.0234375 9.007812 0.03125 8.71875 0.03125 C 8.425781 0.03125 8.101562 0.0195312 7.75 0 C 7.65625 -0.0078125 7.570312 -0.046875 7.5 -0.109375 C 7.4375 -0.179688 7.410156 -0.273438 7.421875 -0.390625 C 7.441406 -0.492188 7.457031 -0.613281 7.46875 -0.75 C 7.488281 -0.894531 7.503906 -1.035156 7.515625 -1.171875 C 7.535156 -1.335938 7.5 -1.425781 7.40625 -1.4375 C 7.3125 -1.457031 7.234375 -1.398438 7.171875 -1.265625 C 6.847656 -0.765625 6.457031 -0.410156 6 -0.203125 C 5.539062 0.00390625 4.972656 0.109375 4.296875 0.109375 Z M 4.296875 0.109375 "/></g></g><g style="fill:#ffffff;fill-opacity:1;"><g transform="translate(48.301837, 19.596776)"><path style="stroke:none" d="M 1.453125 0.0625 C 1.367188 0.0625 1.242188 0.0546875 1.078125 0.046875 C 0.921875 0.046875 0.78125 0.03125 0.65625 0 C 0.570312 -0.0195312 0.5 -0.0664062 0.4375 -0.140625 C 0.375 -0.210938 0.34375 -0.304688 0.34375 -0.421875 C 0.34375 -1.304688 0.34375 -2.070312 0.34375 -2.71875 C 0.351562 -3.375 0.363281 -3.960938 0.375 -4.484375 C 0.394531 -5.003906 0.414062 -5.503906 0.4375 -5.984375 C 0.46875 -6.472656 0.5 -6.988281 0.53125 -7.53125 C 0.5625 -7.75 0.671875 -7.867188 0.859375 -7.890625 C 1.035156 -7.929688 1.28125 -7.953125 1.59375 -7.953125 C 1.71875 -7.953125 1.851562 -7.945312 2 -7.9375 C 2.144531 -7.925781 2.265625 -7.910156 2.359375 -7.890625 C 2.460938 -7.878906 2.546875 -7.84375 2.609375 -7.78125 C 2.671875 -7.71875 2.691406 -7.632812 2.671875 -7.53125 C 2.640625 -7.363281 2.609375 -7.210938 2.578125 -7.078125 C 2.554688 -6.953125 2.546875 -6.835938 2.546875 -6.734375 C 2.546875 -6.566406 2.578125 -6.472656 2.640625 -6.453125 C 2.710938 -6.429688 2.78125 -6.492188 2.84375 -6.640625 C 3.050781 -7.066406 3.335938 -7.398438 3.703125 -7.640625 C 4.078125 -7.890625 4.46875 -8.015625 4.875 -8.015625 C 5.3125 -8.015625 5.707031 -7.914062 6.0625 -7.71875 C 6.425781 -7.519531 6.707031 -7.222656 6.90625 -6.828125 C 7.09375 -6.390625 7.285156 -6.382812 7.484375 -6.8125 C 7.703125 -7.175781 7.992188 -7.46875 8.359375 -7.6875 C 8.734375 -7.90625 9.171875 -8.015625 9.671875 -8.015625 C 10.148438 -8.015625 10.59375 -7.875 11 -7.59375 C 11.40625 -7.3125 11.734375 -6.894531 11.984375 -6.34375 C 12.242188 -5.800781 12.390625 -5.132812 12.421875 -4.34375 C 12.441406 -3.8125 12.46875 -3.207031 12.5 -2.53125 C 12.53125 -1.851562 12.546875 -1.148438 12.546875 -0.421875 C 12.546875 -0.296875 12.515625 -0.195312 12.453125 -0.125 C 12.390625 -0.0625 12.304688 -0.0195312 12.203125 0 C 12.078125 0.0195312 11.945312 0.0351562 11.8125 0.046875 C 11.6875 0.0546875 11.585938 0.0625 11.515625 0.0625 C 11.410156 0.0625 11.265625 0.0546875 11.078125 0.046875 C 10.890625 0.046875 10.726562 0.03125 10.59375 0 C 10.5 -0.0195312 10.414062 -0.0625 10.34375 -0.125 C 10.269531 -0.195312 10.238281 -0.289062 10.25 -0.40625 C 10.28125 -0.757812 10.300781 -1.15625 10.3125 -1.59375 C 10.320312 -2.039062 10.328125 -2.46875 10.328125 -2.875 C 10.335938 -3.289062 10.335938 -3.625 10.328125 -3.875 C 10.328125 -4.539062 10.191406 -5.066406 9.921875 -5.453125 C 9.660156 -5.835938 9.316406 -6.03125 8.890625 -6.03125 C 8.515625 -6.03125 8.1875 -5.828125 7.90625 -5.421875 C 7.632812 -5.023438 7.5 -4.472656 7.5 -3.765625 C 7.5 -3.265625 7.503906 -2.71875 7.515625 -2.125 C 7.535156 -1.53125 7.566406 -0.960938 7.609375 -0.421875 C 7.628906 -0.296875 7.601562 -0.195312 7.53125 -0.125 C 7.457031 -0.0625 7.367188 -0.0195312 7.265625 0 C 7.140625 0.0195312 7.007812 0.0351562 6.875 0.046875 C 6.738281 0.0546875 6.628906 0.0625 6.546875 0.0625 C 6.453125 0.0625 6.304688 0.0546875 6.109375 0.046875 C 5.921875 0.046875 5.757812 0.03125 5.625 0 C 5.53125 -0.0195312 5.445312 -0.0625 5.375 -0.125 C 5.300781 -0.195312 5.269531 -0.289062 5.28125 -0.40625 C 5.300781 -0.78125 5.316406 -1.175781 5.328125 -1.59375 C 5.347656 -2.007812 5.359375 -2.414062 5.359375 -2.8125 C 5.367188 -3.21875 5.367188 -3.570312 5.359375 -3.875 C 5.347656 -4.539062 5.210938 -5.066406 4.953125 -5.453125 C 4.691406 -5.835938 4.347656 -6.03125 3.921875 -6.03125 C 3.535156 -6.03125 3.207031 -5.820312 2.9375 -5.40625 C 2.675781 -5 2.535156 -4.441406 2.515625 -3.734375 C 2.492188 -3.191406 2.484375 -2.644531 2.484375 -2.09375 C 2.492188 -1.550781 2.515625 -0.988281 2.546875 -0.40625 C 2.554688 -0.289062 2.523438 -0.195312 2.453125 -0.125 C 2.378906 -0.0625 2.300781 -0.0195312 2.21875 0 C 2.101562 0.0195312 1.960938 0.0351562 1.796875 0.046875 C 1.640625 0.0546875 1.523438 0.0625 1.453125 0.0625 Z M 1.453125 0.0625 "/></g></g><g style="fill:#ffffff;fill-opacity:1;"><g transform="translate(61.177636, 19.596776)"><path style="stroke:none" d="M 2.71875 0.109375 C 1.976562 0.109375 1.382812 -0.0625 0.9375 -0.40625 C 0.488281 -0.75 0.265625 -1.332031 0.265625 -2.15625 C 0.265625 -2.882812 0.519531 -3.457031 1.03125 -3.875 C 1.550781 -4.300781 2.265625 -4.59375 3.171875 -4.75 C 4.003906 -4.863281 4.585938 -4.976562 4.921875 -5.09375 C 5.265625 -5.21875 5.4375 -5.410156 5.4375 -5.671875 C 5.4375 -5.828125 5.328125 -5.972656 5.109375 -6.109375 C 4.898438 -6.242188 4.539062 -6.3125 4.03125 -6.3125 C 3.59375 -6.3125 3.140625 -6.242188 2.671875 -6.109375 C 2.210938 -5.972656 1.8125 -5.75 1.46875 -5.4375 C 1.363281 -5.289062 1.238281 -5.25 1.09375 -5.3125 C 0.957031 -5.382812 0.894531 -5.523438 0.90625 -5.734375 C 0.914062 -5.835938 0.925781 -5.984375 0.9375 -6.171875 C 0.957031 -6.359375 0.976562 -6.550781 1 -6.75 C 1.03125 -6.945312 1.050781 -7.09375 1.0625 -7.1875 C 1.09375 -7.414062 1.1875 -7.566406 1.34375 -7.640625 C 2.15625 -7.890625 3.03125 -8.015625 3.96875 -8.015625 C 5.070312 -8.015625 5.929688 -7.773438 6.546875 -7.296875 C 7.160156 -6.816406 7.519531 -6.050781 7.625 -5 C 7.65625 -4.625 7.679688 -4.164062 7.703125 -3.625 C 7.734375 -3.082031 7.765625 -2.53125 7.796875 -1.96875 C 7.828125 -1.40625 7.851562 -0.90625 7.875 -0.46875 C 7.875 -0.21875 7.738281 -0.0664062 7.46875 -0.015625 C 7.363281 0.015625 7.238281 0.0351562 7.09375 0.046875 C 6.945312 0.0546875 6.804688 0.0625 6.671875 0.0625 C 6.554688 0.0625 6.410156 0.0546875 6.234375 0.046875 C 6.054688 0.0351562 5.910156 0.015625 5.796875 -0.015625 C 5.671875 -0.0351562 5.566406 -0.0859375 5.484375 -0.171875 C 5.410156 -0.265625 5.382812 -0.378906 5.40625 -0.515625 C 5.414062 -0.609375 5.429688 -0.734375 5.453125 -0.890625 C 5.484375 -1.046875 5.503906 -1.195312 5.515625 -1.34375 C 5.535156 -1.476562 5.503906 -1.554688 5.421875 -1.578125 C 5.335938 -1.609375 5.269531 -1.5625 5.21875 -1.4375 C 4.988281 -0.957031 4.640625 -0.578125 4.171875 -0.296875 C 3.710938 -0.0234375 3.226562 0.109375 2.71875 0.109375 Z M 3.703125 -1.6875 C 3.941406 -1.6875 4.191406 -1.75 4.453125 -1.875 C 4.722656 -2 4.953125 -2.175781 5.140625 -2.40625 C 5.328125 -2.644531 5.421875 -2.9375 5.421875 -3.28125 C 5.421875 -3.507812 5.347656 -3.695312 5.203125 -3.84375 C 5.066406 -4 4.828125 -4.078125 4.484375 -4.078125 C 4.148438 -4.078125 3.828125 -4.015625 3.515625 -3.890625 C 3.203125 -3.765625 2.945312 -3.59375 2.75 -3.375 C 2.5625 -3.15625 2.46875 -2.894531 2.46875 -2.59375 C 2.46875 -2.269531 2.5625 -2.035156 2.75 -1.890625 C 2.945312 -1.753906 3.265625 -1.6875 3.703125 -1.6875 Z M 3.703125 -1.6875 "/></g></g><g style="fill:#ffffff;fill-opacity:1;"><g transform="translate(69.37924, 19.596776)"><path style="stroke:none" d="M 1.5625 -8.65625 C 1.207031 -8.65625 0.914062 -8.75 0.6875 -8.9375 C 0.457031 -9.132812 0.34375 -9.382812 0.34375 -9.6875 C 0.34375 -9.988281 0.457031 -10.238281 0.6875 -10.4375 C 0.914062 -10.632812 1.207031 -10.734375 1.5625 -10.734375 C 1.9375 -10.734375 2.234375 -10.632812 2.453125 -10.4375 C 2.679688 -10.238281 2.796875 -9.988281 2.796875 -9.6875 C 2.796875 -9.382812 2.679688 -9.132812 2.453125 -8.9375 C 2.234375 -8.75 1.9375 -8.65625 1.5625 -8.65625 Z M 1.59375 0.0625 C 1.519531 0.0625 1.394531 0.0546875 1.21875 0.046875 C 1.039062 0.046875 0.890625 0.03125 0.765625 0 C 0.679688 -0.0195312 0.609375 -0.0664062 0.546875 -0.140625 C 0.484375 -0.210938 0.453125 -0.304688 0.453125 -0.421875 C 0.453125 -1.265625 0.453125 -2.003906 0.453125 -2.640625 C 0.460938 -3.285156 0.472656 -3.875 0.484375 -4.40625 C 0.492188 -4.945312 0.503906 -5.46875 0.515625 -5.96875 C 0.535156 -6.46875 0.566406 -6.988281 0.609375 -7.53125 C 0.617188 -7.65625 0.644531 -7.742188 0.6875 -7.796875 C 0.738281 -7.847656 0.816406 -7.878906 0.921875 -7.890625 C 1.023438 -7.910156 1.144531 -7.925781 1.28125 -7.9375 C 1.425781 -7.945312 1.535156 -7.953125 1.609375 -7.953125 C 1.679688 -7.953125 1.78125 -7.945312 1.90625 -7.9375 C 2.03125 -7.925781 2.140625 -7.910156 2.234375 -7.890625 C 2.328125 -7.878906 2.398438 -7.847656 2.453125 -7.796875 C 2.503906 -7.742188 2.535156 -7.65625 2.546875 -7.53125 C 2.578125 -6.988281 2.601562 -6.46875 2.625 -5.96875 C 2.644531 -5.46875 2.660156 -4.945312 2.671875 -4.40625 C 2.679688 -3.875 2.6875 -3.285156 2.6875 -2.640625 C 2.695312 -1.992188 2.703125 -1.25 2.703125 -0.40625 C 2.703125 -0.289062 2.671875 -0.195312 2.609375 -0.125 C 2.546875 -0.0625 2.46875 -0.0195312 2.375 0 C 2.25 0.0195312 2.109375 0.0351562 1.953125 0.046875 C 1.796875 0.0546875 1.675781 0.0625 1.59375 0.0625 Z M 1.59375 0.0625 "/></g></g><g style="fill:#ffffff;fill-opacity:1;"><g transform="translate(72.529238, 19.596776)"><path style="stroke:none" d="M 1.59375 0.0625 C 1.488281 0.0625 1.347656 0.0546875 1.171875 0.046875 C 0.992188 0.0351562 0.84375 0.0195312 0.71875 0 C 0.507812 -0.0507812 0.40625 -0.1875 0.40625 -0.40625 C 0.40625 -1.25 0.410156 -2.125 0.421875 -3.03125 C 0.429688 -3.9375 0.441406 -4.820312 0.453125 -5.6875 C 0.472656 -6.5625 0.5 -7.378906 0.53125 -8.140625 C 0.5625 -8.898438 0.597656 -9.550781 0.640625 -10.09375 C 0.671875 -10.300781 0.789062 -10.421875 1 -10.453125 C 1.101562 -10.472656 1.222656 -10.488281 1.359375 -10.5 C 1.492188 -10.507812 1.617188 -10.515625 1.734375 -10.515625 C 1.867188 -10.515625 2.03125 -10.507812 2.21875 -10.5 C 2.40625 -10.488281 2.546875 -10.472656 2.640625 -10.453125 C 2.742188 -10.441406 2.828125 -10.394531 2.890625 -10.3125 C 2.953125 -10.226562 2.976562 -10.132812 2.96875 -10.03125 C 2.882812 -9.414062 2.816406 -8.695312 2.765625 -7.875 C 2.710938 -7.0625 2.671875 -6.207031 2.640625 -5.3125 C 2.617188 -4.425781 2.613281 -3.554688 2.625 -2.703125 C 2.644531 -1.859375 2.679688 -1.09375 2.734375 -0.40625 C 2.742188 -0.289062 2.71875 -0.195312 2.65625 -0.125 C 2.59375 -0.0507812 2.507812 -0.00390625 2.40625 0.015625 C 2.289062 0.0234375 2.148438 0.0351562 1.984375 0.046875 C 1.828125 0.0546875 1.695312 0.0625 1.59375 0.0625 Z M 1.59375 0.0625 "/></g></g><path style=" stroke:none;fill-rule:nonzero;fill:#ffffff;fill-opacity:1;" d="M 33.511719 10.722656 L 31.335938 11.917969 L 29.15625 13.988281 L 29.15625 21.085938 L 32.207031 21.085938 C 32.929688 21.085938 33.511719 20.5 33.511719 19.777344 Z M 33.511719 10.722656 "/><path style=" stroke:none;fill-rule:nonzero;fill:#ffffff;fill-opacity:1;" d="M 15.222656 10.722656 L 16.796875 11.464844 L 19.578125 13.988281 L 19.578125 21.085938 L 16.53125 21.085938 C 15.808594 21.085938 15.222656 20.5 15.222656 19.777344 Z M 15.222656 10.722656 "/><path style=" stroke:none;fill-rule:nonzero;fill:#ffffff;fill-opacity:1;" d="M 29.15625 8.542969 L 24.367188 12.136719 L 19.578125 8.542969 L 19.144531 11.070312 L 19.578125 13.988281 L 24.367188 17.578125 L 29.15625 13.988281 L 29.59375 11.070312 Z M 29.15625 8.542969 "/><path style=" stroke:none;fill-rule:nonzero;fill:#ffffff;fill-opacity:1;" d="M 15.222656 9.023438 L 15.222656 10.722656 L 19.578125 13.988281 L 19.578125 8.542969 L 18.21875 7.523438 C 17.894531 7.28125 17.5 7.152344 17.097656 7.152344 C 16.0625 7.152344 15.222656 7.988281 15.222656 9.023438 Z M 15.222656 9.023438 "/><path style=" stroke:none;fill-rule:nonzero;fill:#ffffff;fill-opacity:1;" d="M 33.511719 9.023438 L 33.511719 10.722656 L 29.15625 13.988281 L 29.15625 8.542969 L 30.519531 7.523438 C 30.84375 7.28125 31.234375 7.152344 31.640625 7.152344 C 32.675781 7.152344 33.511719 7.988281 33.511719 9.023438 Z M 33.511719 9.023438 "/></g></svg>