<svg xmlns="http://www.w3.org/2000/svg" xmlns:xlink="http://www.w3.org/1999/xlink" width="120" zoomAndPan="magnify" viewBox="0 0 90 30.000001" height="40" preserveAspectRatio="xMidYMid meet" version="1.2"><defs><clipPath id="46e7a234ef"><path d="M 1.453125 0 L 88.546875 0 L 88.546875 29.03125 L 1.453125 29.03125 Z M 1.453125 0 "/></clipPath><linearGradient x1="0" gradientTransform="matrix(0.725806,0,0,0.725806,1.451611,0.00000193548)" y1="20" x2="119.999995" gradientUnits="userSpaceOnUse" y2="20" id="c40ae461d1"><stop style="stop-color:#ff5757;stop-opacity:1;" offset="0"/><stop style="stop-color:#ff5758;stop-opacity:1;" offset="0.00390625"/><stop style="stop-color:#fe5758;stop-opacity:1;" offset="0.0078125"/><stop style="stop-color:#fe5759;stop-opacity:1;" offset="0.0117188"/><stop style="stop-color:#fd575a;stop-opacity:1;" offset="0.015625"/><stop style="stop-color:#fd575a;stop-opacity:1;" offset="0.0195312"/><stop style="stop-color:#fc575b;stop-opacity:1;" offset="0.0234375"/><stop style="stop-color:#fc575c;stop-opacity:1;" offset="0.0273438"/><stop style="stop-color:#fb575c;stop-opacity:1;" offset="0.03125"/><stop style="stop-color:#fb575d;stop-opacity:1;" offset="0.0351562"/><stop style="stop-color:#fb575e;stop-opacity:1;" offset="0.0390625"/><stop style="stop-color:#fa575e;stop-opacity:1;" offset="0.0429688"/><stop style="stop-color:#fa575f;stop-opacity:1;" offset="0.046875"/><stop style="stop-color:#f9575f;stop-opacity:1;" offset="0.0507812"/><stop style="stop-color:#f95760;stop-opacity:1;" offset="0.0546875"/><stop style="stop-color:#f85761;stop-opacity:1;" offset="0.0585938"/><stop style="stop-color:#f85761;stop-opacity:1;" offset="0.0625"/><stop style="stop-color:#f75762;stop-opacity:1;" offset="0.0664062"/><stop style="stop-color:#f75763;stop-opacity:1;" offset="0.0703125"/><stop style="stop-color:#f65763;stop-opacity:1;" offset="0.0742188"/><stop style="stop-color:#f65764;stop-opacity:1;" offset="0.078125"/><stop style="stop-color:#f65765;stop-opacity:1;" offset="0.0820312"/><stop style="stop-color:#f55765;stop-opacity:1;" offset="0.0859375"/><stop style="stop-color:#f55766;stop-opacity:1;" offset="0.0898438"/><stop style="stop-color:#f45767;stop-opacity:1;" offset="0.09375"/><stop style="stop-color:#f45667;stop-opacity:1;" offset="0.0976562"/><stop style="stop-color:#f35668;stop-opacity:1;" offset="0.101562"/><stop style="stop-color:#f35669;stop-opacity:1;" offset="0.105469"/><stop style="stop-color:#f25669;stop-opacity:1;" offset="0.109375"/><stop style="stop-color:#f2566a;stop-opacity:1;" offset="0.113281"/><stop style="stop-color:#f2566b;stop-opacity:1;" offset="0.117188"/><stop style="stop-color:#f1566b;stop-opacity:1;" offset="0.121094"/><stop style="stop-color:#f1566c;stop-opacity:1;" offset="0.125"/><stop style="stop-color:#f0566d;stop-opacity:1;" offset="0.128906"/><stop style="stop-color:#f0566d;stop-opacity:1;" offset="0.132812"/><stop style="stop-color:#ef566e;stop-opacity:1;" offset="0.136719"/><stop style="stop-color:#ef566f;stop-opacity:1;" offset="0.140625"/><stop style="stop-color:#ee566f;stop-opacity:1;" offset="0.144531"/><stop style="stop-color:#ee5670;stop-opacity:1;" offset="0.148438"/><stop style="stop-color:#ed5671;stop-opacity:1;" offset="0.152344"/><stop style="stop-color:#ed5671;stop-opacity:1;" offset="0.15625"/><stop style="stop-color:#ed5672;stop-opacity:1;" offset="0.160156"/><stop style="stop-color:#ec5673;stop-opacity:1;" offset="0.164062"/><stop style="stop-color:#ec5673;stop-opacity:1;" offset="0.167969"/><stop style="stop-color:#eb5674;stop-opacity:1;" offset="0.171875"/><stop style="stop-color:#eb5674;stop-opacity:1;" offset="0.175781"/><stop style="stop-color:#ea5675;stop-opacity:1;" offset="0.179688"/><stop style="stop-color:#ea5676;stop-opacity:1;" offset="0.183594"/><stop style="stop-color:#e95676;stop-opacity:1;" offset="0.1875"/><stop style="stop-color:#e95677;stop-opacity:1;" offset="0.191406"/><stop style="stop-color:#e95678;stop-opacity:1;" offset="0.195312"/><stop style="stop-color:#e85678;stop-opacity:1;" offset="0.199219"/><stop style="stop-color:#e85679;stop-opacity:1;" offset="0.203125"/><stop style="stop-color:#e7567a;stop-opacity:1;" offset="0.207031"/><stop style="stop-color:#e7567a;stop-opacity:1;" offset="0.210938"/><stop style="stop-color:#e6567b;stop-opacity:1;" offset="0.214844"/><stop style="stop-color:#e6567c;stop-opacity:1;" offset="0.21875"/><stop style="stop-color:#e5567c;stop-opacity:1;" offset="0.222656"/><stop style="stop-color:#e5567d;stop-opacity:1;" offset="0.226562"/><stop style="stop-color:#e4567e;stop-opacity:1;" offset="0.230469"/><stop style="stop-color:#e4567e;stop-opacity:1;" offset="0.234375"/><stop style="stop-color:#e4567f;stop-opacity:1;" offset="0.238281"/><stop style="stop-color:#e35680;stop-opacity:1;" offset="0.242188"/><stop style="stop-color:#e35680;stop-opacity:1;" offset="0.246094"/><stop style="stop-color:#e25681;stop-opacity:1;" offset="0.25"/><stop style="stop-color:#e25682;stop-opacity:1;" offset="0.253906"/><stop style="stop-color:#e15682;stop-opacity:1;" offset="0.257812"/><stop style="stop-color:#e15683;stop-opacity:1;" offset="0.261719"/><stop style="stop-color:#e05684;stop-opacity:1;" offset="0.265625"/><stop style="stop-color:#e05684;stop-opacity:1;" offset="0.269531"/><stop style="stop-color:#e05685;stop-opacity:1;" offset="0.273438"/><stop style="stop-color:#df5686;stop-opacity:1;" offset="0.277344"/><stop style="stop-color:#df5686;stop-opacity:1;" offset="0.28125"/><stop style="stop-color:#de5687;stop-opacity:1;" offset="0.285156"/><stop style="stop-color:#de5688;stop-opacity:1;" offset="0.289062"/><stop style="stop-color:#dd5688;stop-opacity:1;" offset="0.292969"/><stop style="stop-color:#dd5689;stop-opacity:1;" offset="0.296875"/><stop style="stop-color:#dc5589;stop-opacity:1;" offset="0.300781"/><stop style="stop-color:#dc558a;stop-opacity:1;" offset="0.304688"/><stop style="stop-color:#dc558b;stop-opacity:1;" offset="0.308594"/><stop style="stop-color:#db558b;stop-opacity:1;" offset="0.3125"/><stop style="stop-color:#db558c;stop-opacity:1;" offset="0.316406"/><stop style="stop-color:#da558d;stop-opacity:1;" offset="0.320312"/><stop style="stop-color:#da558d;stop-opacity:1;" offset="0.324219"/><stop style="stop-color:#d9558e;stop-opacity:1;" offset="0.328125"/><stop style="stop-color:#d9558f;stop-opacity:1;" offset="0.332031"/><stop style="stop-color:#d8558f;stop-opacity:1;" offset="0.335938"/><stop style="stop-color:#d85590;stop-opacity:1;" offset="0.339844"/><stop style="stop-color:#d75591;stop-opacity:1;" offset="0.34375"/><stop style="stop-color:#d75591;stop-opacity:1;" offset="0.347656"/><stop style="stop-color:#d75592;stop-opacity:1;" offset="0.351562"/><stop style="stop-color:#d65593;stop-opacity:1;" offset="0.355469"/><stop style="stop-color:#d65593;stop-opacity:1;" offset="0.359375"/><stop style="stop-color:#d55594;stop-opacity:1;" offset="0.363281"/><stop style="stop-color:#d55595;stop-opacity:1;" offset="0.367188"/><stop style="stop-color:#d45595;stop-opacity:1;" offset="0.371094"/><stop style="stop-color:#d45596;stop-opacity:1;" offset="0.375"/><stop style="stop-color:#d35597;stop-opacity:1;" offset="0.378906"/><stop style="stop-color:#d35597;stop-opacity:1;" offset="0.382812"/><stop style="stop-color:#d35598;stop-opacity:1;" offset="0.386719"/><stop style="stop-color:#d25599;stop-opacity:1;" offset="0.390625"/><stop style="stop-color:#d25599;stop-opacity:1;" offset="0.394531"/><stop style="stop-color:#d1559a;stop-opacity:1;" offset="0.398438"/><stop style="stop-color:#d1559b;stop-opacity:1;" offset="0.402344"/><stop style="stop-color:#d0559b;stop-opacity:1;" offset="0.40625"/><stop style="stop-color:#d0559c;stop-opacity:1;" offset="0.410156"/><stop style="stop-color:#cf559d;stop-opacity:1;" offset="0.414062"/><stop style="stop-color:#cf559d;stop-opacity:1;" offset="0.417969"/><stop style="stop-color:#ce559e;stop-opacity:1;" offset="0.421875"/><stop style="stop-color:#ce559f;stop-opacity:1;" offset="0.425781"/><stop style="stop-color:#ce559f;stop-opacity:1;" offset="0.429688"/><stop style="stop-color:#cd55a0;stop-opacity:1;" offset="0.433594"/><stop style="stop-color:#cd55a0;stop-opacity:1;" offset="0.4375"/><stop style="stop-color:#cc55a1;stop-opacity:1;" offset="0.441406"/><stop style="stop-color:#cc55a2;stop-opacity:1;" offset="0.445312"/><stop style="stop-color:#cb55a2;stop-opacity:1;" offset="0.449219"/><stop style="stop-color:#cb55a3;stop-opacity:1;" offset="0.453125"/><stop style="stop-color:#ca55a4;stop-opacity:1;" offset="0.457031"/><stop style="stop-color:#ca55a4;stop-opacity:1;" offset="0.460938"/><stop style="stop-color:#ca55a5;stop-opacity:1;" offset="0.464844"/><stop style="stop-color:#c955a6;stop-opacity:1;" offset="0.46875"/><stop style="stop-color:#c955a6;stop-opacity:1;" offset="0.472656"/><stop style="stop-color:#c855a7;stop-opacity:1;" offset="0.476562"/><stop style="stop-color:#c855a8;stop-opacity:1;" offset="0.480469"/><stop style="stop-color:#c755a8;stop-opacity:1;" offset="0.484375"/><stop style="stop-color:#c755a9;stop-opacity:1;" offset="0.488281"/><stop style="stop-color:#c655aa;stop-opacity:1;" offset="0.492188"/><stop style="stop-color:#c655aa;stop-opacity:1;" offset="0.496094"/><stop style="stop-color:#c555ab;stop-opacity:1;" offset="0.5"/><stop style="stop-color:#c555ac;stop-opacity:1;" offset="0.503906"/><stop style="stop-color:#c554ac;stop-opacity:1;" offset="0.507812"/><stop style="stop-color:#c454ad;stop-opacity:1;" offset="0.511719"/><stop style="stop-color:#c454ae;stop-opacity:1;" offset="0.515625"/><stop style="stop-color:#c354ae;stop-opacity:1;" offset="0.519531"/><stop style="stop-color:#c354af;stop-opacity:1;" offset="0.523438"/><stop style="stop-color:#c254b0;stop-opacity:1;" offset="0.527344"/><stop style="stop-color:#c254b0;stop-opacity:1;" offset="0.53125"/><stop style="stop-color:#c154b1;stop-opacity:1;" offset="0.535156"/><stop style="stop-color:#c154b2;stop-opacity:1;" offset="0.539062"/><stop style="stop-color:#c154b2;stop-opacity:1;" offset="0.542969"/><stop style="stop-color:#c054b3;stop-opacity:1;" offset="0.546875"/><stop style="stop-color:#c054b4;stop-opacity:1;" offset="0.550781"/><stop style="stop-color:#bf54b4;stop-opacity:1;" offset="0.554688"/><stop style="stop-color:#bf54b5;stop-opacity:1;" offset="0.558594"/><stop style="stop-color:#be54b5;stop-opacity:1;" offset="0.5625"/><stop style="stop-color:#be54b6;stop-opacity:1;" offset="0.566406"/><stop style="stop-color:#bd54b7;stop-opacity:1;" offset="0.570312"/><stop style="stop-color:#bd54b7;stop-opacity:1;" offset="0.574219"/><stop style="stop-color:#bd54b8;stop-opacity:1;" offset="0.578125"/><stop style="stop-color:#bc54b9;stop-opacity:1;" offset="0.582031"/><stop style="stop-color:#bc54b9;stop-opacity:1;" offset="0.585938"/><stop style="stop-color:#bb54ba;stop-opacity:1;" offset="0.589844"/><stop style="stop-color:#bb54bb;stop-opacity:1;" offset="0.59375"/><stop style="stop-color:#ba54bb;stop-opacity:1;" offset="0.597656"/><stop style="stop-color:#ba54bc;stop-opacity:1;" offset="0.601562"/><stop style="stop-color:#b954bd;stop-opacity:1;" offset="0.605469"/><stop style="stop-color:#b954bd;stop-opacity:1;" offset="0.609375"/><stop style="stop-color:#b854be;stop-opacity:1;" offset="0.613281"/><stop style="stop-color:#b854bf;stop-opacity:1;" offset="0.617188"/><stop style="stop-color:#b854bf;stop-opacity:1;" offset="0.621094"/><stop style="stop-color:#b754c0;stop-opacity:1;" offset="0.625"/><stop style="stop-color:#b754c1;stop-opacity:1;" offset="0.628906"/><stop style="stop-color:#b654c1;stop-opacity:1;" offset="0.632812"/><stop style="stop-color:#b654c2;stop-opacity:1;" offset="0.636719"/><stop style="stop-color:#b554c3;stop-opacity:1;" offset="0.640625"/><stop style="stop-color:#b554c3;stop-opacity:1;" offset="0.644531"/><stop style="stop-color:#b454c4;stop-opacity:1;" offset="0.648438"/><stop style="stop-color:#b454c5;stop-opacity:1;" offset="0.652344"/><stop style="stop-color:#b454c5;stop-opacity:1;" offset="0.65625"/><stop style="stop-color:#b354c6;stop-opacity:1;" offset="0.660156"/><stop style="stop-color:#b354c7;stop-opacity:1;" offset="0.664062"/><stop style="stop-color:#b254c7;stop-opacity:1;" offset="0.667969"/><stop style="stop-color:#b254c8;stop-opacity:1;" offset="0.671875"/><stop style="stop-color:#b154c9;stop-opacity:1;" offset="0.675781"/><stop style="stop-color:#b154c9;stop-opacity:1;" offset="0.679688"/><stop style="stop-color:#b054ca;stop-opacity:1;" offset="0.683594"/><stop style="stop-color:#b054ca;stop-opacity:1;" offset="0.6875"/><stop style="stop-color:#af54cb;stop-opacity:1;" offset="0.691406"/><stop style="stop-color:#af54cc;stop-opacity:1;" offset="0.695312"/><stop style="stop-color:#af54cc;stop-opacity:1;" offset="0.699219"/><stop style="stop-color:#ae54cd;stop-opacity:1;" offset="0.703125"/><stop style="stop-color:#ae54ce;stop-opacity:1;" offset="0.707031"/><stop style="stop-color:#ad54ce;stop-opacity:1;" offset="0.710938"/><stop style="stop-color:#ad53cf;stop-opacity:1;" offset="0.714844"/><stop style="stop-color:#ac53d0;stop-opacity:1;" offset="0.71875"/><stop style="stop-color:#ac53d0;stop-opacity:1;" offset="0.722656"/><stop style="stop-color:#ab53d1;stop-opacity:1;" offset="0.726562"/><stop style="stop-color:#ab53d2;stop-opacity:1;" offset="0.730469"/><stop style="stop-color:#ab53d2;stop-opacity:1;" offset="0.734375"/><stop style="stop-color:#aa53d3;stop-opacity:1;" offset="0.738281"/><stop style="stop-color:#aa53d4;stop-opacity:1;" offset="0.742188"/><stop style="stop-color:#a953d4;stop-opacity:1;" offset="0.746094"/><stop style="stop-color:#a953d5;stop-opacity:1;" offset="0.75"/><stop style="stop-color:#a853d6;stop-opacity:1;" offset="0.753906"/><stop style="stop-color:#a853d6;stop-opacity:1;" offset="0.757812"/><stop style="stop-color:#a753d7;stop-opacity:1;" offset="0.761719"/><stop style="stop-color:#a753d8;stop-opacity:1;" offset="0.765625"/><stop style="stop-color:#a653d8;stop-opacity:1;" offset="0.769531"/><stop style="stop-color:#a653d9;stop-opacity:1;" offset="0.773438"/><stop style="stop-color:#a653da;stop-opacity:1;" offset="0.777344"/><stop style="stop-color:#a553da;stop-opacity:1;" offset="0.78125"/><stop style="stop-color:#a553db;stop-opacity:1;" offset="0.785156"/><stop style="stop-color:#a453dc;stop-opacity:1;" offset="0.789062"/><stop style="stop-color:#a453dc;stop-opacity:1;" offset="0.792969"/><stop style="stop-color:#a353dd;stop-opacity:1;" offset="0.796875"/><stop style="stop-color:#a353de;stop-opacity:1;" offset="0.800781"/><stop style="stop-color:#a253de;stop-opacity:1;" offset="0.804688"/><stop style="stop-color:#a253df;stop-opacity:1;" offset="0.808594"/><stop style="stop-color:#a253df;stop-opacity:1;" offset="0.8125"/><stop style="stop-color:#a153e0;stop-opacity:1;" offset="0.816406"/><stop style="stop-color:#a153e1;stop-opacity:1;" offset="0.820312"/><stop style="stop-color:#a053e1;stop-opacity:1;" offset="0.824219"/><stop style="stop-color:#a053e2;stop-opacity:1;" offset="0.828125"/><stop style="stop-color:#9f53e3;stop-opacity:1;" offset="0.832031"/><stop style="stop-color:#9f53e3;stop-opacity:1;" offset="0.835938"/><stop style="stop-color:#9e53e4;stop-opacity:1;" offset="0.839844"/><stop style="stop-color:#9e53e5;stop-opacity:1;" offset="0.84375"/><stop style="stop-color:#9e53e5;stop-opacity:1;" offset="0.847656"/><stop style="stop-color:#9d53e6;stop-opacity:1;" offset="0.851562"/><stop style="stop-color:#9d53e7;stop-opacity:1;" offset="0.855469"/><stop style="stop-color:#9c53e7;stop-opacity:1;" offset="0.859375"/><stop style="stop-color:#9c53e8;stop-opacity:1;" offset="0.863281"/><stop style="stop-color:#9b53e9;stop-opacity:1;" offset="0.867188"/><stop style="stop-color:#9b53e9;stop-opacity:1;" offset="0.871094"/><stop style="stop-color:#9a53ea;stop-opacity:1;" offset="0.875"/><stop style="stop-color:#9a53eb;stop-opacity:1;" offset="0.878906"/><stop style="stop-color:#9953eb;stop-opacity:1;" offset="0.882812"/><stop style="stop-color:#9953ec;stop-opacity:1;" offset="0.886719"/><stop style="stop-color:#9953ed;stop-opacity:1;" offset="0.890625"/><stop style="stop-color:#9853ed;stop-opacity:1;" offset="0.894531"/><stop style="stop-color:#9853ee;stop-opacity:1;" offset="0.898438"/><stop style="stop-color:#9753ef;stop-opacity:1;" offset="0.902344"/><stop style="stop-color:#9753ef;stop-opacity:1;" offset="0.90625"/><stop style="stop-color:#9653f0;stop-opacity:1;" offset="0.910156"/><stop style="stop-color:#9653f1;stop-opacity:1;" offset="0.914062"/><stop style="stop-color:#9553f1;stop-opacity:1;" offset="0.917969"/><stop style="stop-color:#9552f2;stop-opacity:1;" offset="0.921875"/><stop style="stop-color:#9552f3;stop-opacity:1;" offset="0.925781"/><stop style="stop-color:#9452f3;stop-opacity:1;" offset="0.929688"/><stop style="stop-color:#9452f4;stop-opacity:1;" offset="0.933594"/><stop style="stop-color:#9352f4;stop-opacity:1;" offset="0.9375"/><stop style="stop-color:#9352f5;stop-opacity:1;" offset="0.941406"/><stop style="stop-color:#9252f6;stop-opacity:1;" offset="0.945312"/><stop style="stop-color:#9252f6;stop-opacity:1;" offset="0.949219"/><stop style="stop-color:#9152f7;stop-opacity:1;" offset="0.953125"/><stop style="stop-color:#9152f8;stop-opacity:1;" offset="0.957031"/><stop style="stop-color:#9052f8;stop-opacity:1;" offset="0.960938"/><stop style="stop-color:#9052f9;stop-opacity:1;" offset="0.964844"/><stop style="stop-color:#9052fa;stop-opacity:1;" offset="0.96875"/><stop style="stop-color:#8f52fa;stop-opacity:1;" offset="0.972656"/><stop style="stop-color:#8f52fb;stop-opacity:1;" offset="0.976562"/><stop style="stop-color:#8e52fc;stop-opacity:1;" offset="0.980469"/><stop style="stop-color:#8e52fc;stop-opacity:1;" offset="0.984375"/><stop style="stop-color:#8d52fd;stop-opacity:1;" offset="0.988281"/><stop style="stop-color:#8d52fe;stop-opacity:1;" offset="0.992188"/><stop style="stop-color:#8c52fe;stop-opacity:1;" offset="0.996094"/><stop style="stop-color:#8c52ff;stop-opacity:1;" offset="1"/></linearGradient><clipPath id="e184eae242"><path d="M 9.335938 7.90625 L 22.699219 7.90625 L 22.699219 21.269531 L 9.335938 21.269531 Z M 9.335938 7.90625 "/></clipPath></defs><g id="94794d5deb"><g clip-rule="nonzero" clip-path="url(#46e7a234ef)"><path style=" stroke:none;fill-rule:nonzero;fill:#ffffff;fill-opacity:1;" d="M 1.453125 0 L 88.546875 0 L 88.546875 29.03125 L 1.453125 29.03125 Z M 1.453125 0 "/><path style=" stroke:none;fill-rule:nonzero;fill:url(#c40ae461d1);" d="M 1.453125 0 L 1.453125 29.03125 L 88.546875 29.03125 L 88.546875 0 Z M 1.453125 0 "/></g><g style="fill:#ffffff;fill-opacity:1;"><g transform="translate(26.367476, 18.371801)"><path style="stroke:none" d="M 1.21875 0.046875 C 1.144531 0.046875 1.046875 0.0390625 0.921875 0.03125 C 0.796875 0.0195312 0.679688 0.0078125 0.578125 0 C 0.503906 -0.0078125 0.4375 -0.0390625 0.375 -0.09375 C 0.320312 -0.144531 0.296875 -0.21875 0.296875 -0.3125 C 0.296875 -0.945312 0.300781 -1.597656 0.3125 -2.265625 C 0.320312 -2.929688 0.332031 -3.582031 0.34375 -4.21875 C 0.363281 -4.851562 0.378906 -5.441406 0.390625 -5.984375 C 0.410156 -6.535156 0.429688 -7.019531 0.453125 -7.4375 C 0.460938 -7.582031 0.554688 -7.675781 0.734375 -7.71875 C 0.804688 -7.726562 0.894531 -7.734375 1 -7.734375 C 1.101562 -7.742188 1.1875 -7.75 1.25 -7.75 C 1.300781 -7.75 1.375 -7.742188 1.46875 -7.734375 C 1.5625 -7.734375 1.640625 -7.726562 1.703125 -7.71875 C 1.867188 -7.675781 1.957031 -7.582031 1.96875 -7.4375 C 1.988281 -7.019531 2.003906 -6.535156 2.015625 -5.984375 C 2.035156 -5.441406 2.054688 -4.851562 2.078125 -4.21875 C 2.097656 -3.582031 2.113281 -2.929688 2.125 -2.265625 C 2.132812 -1.597656 2.140625 -0.945312 2.140625 -0.3125 C 2.140625 -0.21875 2.109375 -0.144531 2.046875 -0.09375 C 1.992188 -0.0390625 1.929688 -0.00390625 1.859375 0.015625 C 1.765625 0.015625 1.65625 0.0195312 1.53125 0.03125 C 1.40625 0.0390625 1.300781 0.046875 1.21875 0.046875 Z M 1.21875 0.046875 "/></g></g><g style="fill:#ffffff;fill-opacity:1;"><g transform="translate(28.791036, 18.371801)"><path style="stroke:none" d="M 1.15625 0.046875 C 1.0625 0.046875 0.953125 0.0390625 0.828125 0.03125 C 0.710938 0.0195312 0.613281 0.0078125 0.53125 0 C 0.457031 -0.0078125 0.394531 -0.0390625 0.34375 -0.09375 C 0.300781 -0.144531 0.28125 -0.21875 0.28125 -0.3125 C 0.28125 -0.988281 0.28125 -1.570312 0.28125 -2.0625 C 0.289062 -2.550781 0.300781 -2.992188 0.3125 -3.390625 C 0.332031 -3.785156 0.351562 -4.164062 0.375 -4.53125 C 0.394531 -4.90625 0.425781 -5.296875 0.46875 -5.703125 C 0.488281 -5.867188 0.570312 -5.96875 0.71875 -6 C 0.800781 -6.007812 0.890625 -6.015625 0.984375 -6.015625 C 1.078125 -6.023438 1.171875 -6.03125 1.265625 -6.03125 C 1.367188 -6.03125 1.472656 -6.023438 1.578125 -6.015625 C 1.679688 -6.015625 1.785156 -6.007812 1.890625 -6 C 1.960938 -5.988281 2.019531 -5.953125 2.0625 -5.890625 C 2.113281 -5.835938 2.128906 -5.769531 2.109375 -5.6875 C 2.078125 -5.59375 2.050781 -5.5 2.03125 -5.40625 C 2.007812 -5.3125 2 -5.226562 2 -5.15625 C 1.988281 -5.03125 2.003906 -4.960938 2.046875 -4.953125 C 2.097656 -4.941406 2.15625 -4.988281 2.21875 -5.09375 C 2.476562 -5.445312 2.753906 -5.695312 3.046875 -5.84375 C 3.347656 -6 3.691406 -6.078125 4.078125 -6.078125 C 4.523438 -6.078125 4.921875 -5.957031 5.265625 -5.71875 C 5.617188 -5.488281 5.898438 -5.15625 6.109375 -4.71875 C 6.316406 -4.28125 6.429688 -3.757812 6.453125 -3.15625 C 6.472656 -2.875 6.488281 -2.597656 6.5 -2.328125 C 6.507812 -2.054688 6.515625 -1.757812 6.515625 -1.4375 C 6.523438 -1.125 6.53125 -0.75 6.53125 -0.3125 C 6.53125 -0.21875 6.503906 -0.144531 6.453125 -0.09375 C 6.410156 -0.0390625 6.347656 -0.0078125 6.265625 0 C 6.179688 0.0078125 6.078125 0.0195312 5.953125 0.03125 C 5.835938 0.0390625 5.75 0.046875 5.6875 0.046875 C 5.625 0.046875 5.523438 0.0390625 5.390625 0.03125 C 5.253906 0.0195312 5.132812 0.0078125 5.03125 0 C 4.957031 -0.0078125 4.894531 -0.0390625 4.84375 -0.09375 C 4.789062 -0.144531 4.765625 -0.21875 4.765625 -0.3125 C 4.796875 -0.5625 4.816406 -0.835938 4.828125 -1.140625 C 4.847656 -1.453125 4.859375 -1.75 4.859375 -2.03125 C 4.867188 -2.320312 4.875 -2.5625 4.875 -2.75 C 4.863281 -3.34375 4.722656 -3.8125 4.453125 -4.15625 C 4.191406 -4.507812 3.835938 -4.6875 3.390625 -4.6875 C 2.960938 -4.6875 2.609375 -4.507812 2.328125 -4.15625 C 2.054688 -3.800781 1.921875 -3.328125 1.921875 -2.734375 C 1.929688 -2.421875 1.941406 -2.039062 1.953125 -1.59375 C 1.972656 -1.144531 2.007812 -0.71875 2.0625 -0.3125 C 2.070312 -0.21875 2.050781 -0.144531 2 -0.09375 C 1.945312 -0.0390625 1.882812 -0.0078125 1.8125 0 C 1.726562 0.0078125 1.617188 0.0195312 1.484375 0.03125 C 1.347656 0.0390625 1.238281 0.046875 1.15625 0.046875 Z M 1.15625 0.046875 "/></g></g><g style="fill:#ffffff;fill-opacity:1;"><g transform="translate(35.57701, 18.371801)"><path style="stroke:none" d="M 2.9375 0.078125 C 2.6875 0.078125 2.410156 0.0546875 2.109375 0.015625 C 1.804688 -0.015625 1.507812 -0.0546875 1.21875 -0.109375 C 0.9375 -0.171875 0.6875 -0.238281 0.46875 -0.3125 C 0.394531 -0.34375 0.332031 -0.390625 0.28125 -0.453125 C 0.226562 -0.515625 0.203125 -0.59375 0.203125 -0.6875 C 0.222656 -0.875 0.234375 -1.054688 0.234375 -1.234375 C 0.242188 -1.410156 0.253906 -1.59375 0.265625 -1.78125 C 0.273438 -1.9375 0.328125 -2.023438 0.421875 -2.046875 C 0.523438 -2.078125 0.613281 -2.046875 0.6875 -1.953125 C 0.863281 -1.816406 1.070312 -1.691406 1.3125 -1.578125 C 1.550781 -1.460938 1.804688 -1.375 2.078125 -1.3125 C 2.347656 -1.25 2.609375 -1.21875 2.859375 -1.21875 C 3.234375 -1.21875 3.515625 -1.265625 3.703125 -1.359375 C 3.898438 -1.453125 4 -1.601562 4 -1.8125 C 4 -1.976562 3.910156 -2.113281 3.734375 -2.21875 C 3.554688 -2.320312 3.328125 -2.410156 3.046875 -2.484375 C 2.773438 -2.566406 2.484375 -2.648438 2.171875 -2.734375 C 1.867188 -2.828125 1.578125 -2.941406 1.296875 -3.078125 C 1.023438 -3.222656 0.800781 -3.398438 0.625 -3.609375 C 0.445312 -3.828125 0.359375 -4.097656 0.359375 -4.421875 C 0.359375 -4.785156 0.472656 -5.085938 0.703125 -5.328125 C 0.941406 -5.566406 1.257812 -5.75 1.65625 -5.875 C 2.0625 -6 2.523438 -6.0625 3.046875 -6.0625 C 3.316406 -6.0625 3.628906 -6.039062 3.984375 -6 C 4.347656 -5.96875 4.65625 -5.910156 4.90625 -5.828125 C 5.101562 -5.753906 5.203125 -5.628906 5.203125 -5.453125 C 5.203125 -5.304688 5.203125 -5.15625 5.203125 -5 C 5.203125 -4.851562 5.203125 -4.707031 5.203125 -4.5625 C 5.203125 -4.375 5.15625 -4.269531 5.0625 -4.25 C 4.96875 -4.226562 4.878906 -4.253906 4.796875 -4.328125 C 4.597656 -4.472656 4.347656 -4.59375 4.046875 -4.6875 C 3.742188 -4.78125 3.441406 -4.828125 3.140625 -4.828125 C 2.828125 -4.828125 2.554688 -4.773438 2.328125 -4.671875 C 2.109375 -4.578125 2 -4.445312 2 -4.28125 C 2 -4.132812 2.085938 -4.015625 2.265625 -3.921875 C 2.441406 -3.828125 2.664062 -3.738281 2.9375 -3.65625 C 3.21875 -3.582031 3.507812 -3.5 3.8125 -3.40625 C 4.125 -3.3125 4.414062 -3.191406 4.6875 -3.046875 C 4.96875 -2.898438 5.195312 -2.71875 5.375 -2.5 C 5.550781 -2.289062 5.640625 -2.015625 5.640625 -1.671875 C 5.640625 -1.140625 5.410156 -0.710938 4.953125 -0.390625 C 4.492188 -0.078125 3.820312 0.078125 2.9375 0.078125 Z M 2.9375 0.078125 "/></g></g><g style="fill:#ffffff;fill-opacity:1;"><g transform="translate(41.151204, 18.371801)"><path style="stroke:none" d="M 3.359375 0.09375 C 2.984375 0.09375 2.644531 0.0195312 2.34375 -0.125 C 2.039062 -0.28125 1.796875 -0.503906 1.609375 -0.796875 C 1.429688 -1.085938 1.335938 -1.453125 1.328125 -1.890625 C 1.328125 -2.140625 1.332031 -2.425781 1.34375 -2.75 C 1.351562 -3.070312 1.363281 -3.398438 1.375 -3.734375 C 1.394531 -4.066406 1.414062 -4.382812 1.4375 -4.6875 C 1.445312 -4.75 1.429688 -4.796875 1.390625 -4.828125 C 1.347656 -4.867188 1.300781 -4.890625 1.25 -4.890625 C 1.113281 -4.890625 0.972656 -4.890625 0.828125 -4.890625 C 0.691406 -4.890625 0.554688 -4.882812 0.421875 -4.875 C 0.347656 -4.875 0.28125 -4.90625 0.21875 -4.96875 C 0.15625 -5.03125 0.125 -5.097656 0.125 -5.171875 L 0.125 -5.6875 C 0.125 -5.769531 0.15625 -5.84375 0.21875 -5.90625 C 0.28125 -5.96875 0.347656 -6 0.421875 -6 L 1.25 -6 C 1.375 -6 1.4375 -6.066406 1.4375 -6.203125 C 1.4375 -6.335938 1.441406 -6.476562 1.453125 -6.625 C 1.460938 -6.78125 1.472656 -6.929688 1.484375 -7.078125 C 1.503906 -7.253906 1.597656 -7.351562 1.765625 -7.375 C 1.859375 -7.394531 1.953125 -7.40625 2.046875 -7.40625 C 2.140625 -7.414062 2.226562 -7.421875 2.3125 -7.421875 C 2.40625 -7.421875 2.492188 -7.414062 2.578125 -7.40625 C 2.671875 -7.40625 2.765625 -7.394531 2.859375 -7.375 C 2.929688 -7.375 3 -7.34375 3.0625 -7.28125 C 3.125 -7.226562 3.144531 -7.160156 3.125 -7.078125 C 3.125 -6.929688 3.113281 -6.785156 3.09375 -6.640625 C 3.070312 -6.503906 3.0625 -6.363281 3.0625 -6.21875 C 3.0625 -6.070312 3.128906 -6 3.265625 -6 C 3.492188 -6 3.757812 -6 4.0625 -6 C 4.375 -6 4.644531 -6.003906 4.875 -6.015625 C 4.945312 -6.015625 5.015625 -5.984375 5.078125 -5.921875 C 5.140625 -5.867188 5.171875 -5.800781 5.171875 -5.71875 L 5.171875 -5.125 C 5.171875 -5.039062 5.140625 -4.96875 5.078125 -4.90625 C 5.015625 -4.84375 4.945312 -4.816406 4.875 -4.828125 C 4.769531 -4.835938 4.625 -4.847656 4.4375 -4.859375 C 4.25 -4.867188 4.054688 -4.875 3.859375 -4.875 C 3.671875 -4.882812 3.523438 -4.882812 3.421875 -4.875 C 3.160156 -4.875 3.007812 -4.738281 2.96875 -4.46875 C 2.945312 -4.09375 2.9375 -3.6875 2.9375 -3.25 C 2.9375 -2.8125 2.9375 -2.429688 2.9375 -2.109375 C 2.957031 -1.828125 3.039062 -1.625 3.1875 -1.5 C 3.332031 -1.382812 3.507812 -1.328125 3.71875 -1.328125 C 3.8125 -1.328125 3.929688 -1.34375 4.078125 -1.375 C 4.234375 -1.40625 4.382812 -1.441406 4.53125 -1.484375 C 4.6875 -1.535156 4.800781 -1.582031 4.875 -1.625 C 4.96875 -1.726562 5.066406 -1.753906 5.171875 -1.703125 C 5.273438 -1.648438 5.320312 -1.550781 5.3125 -1.40625 C 5.3125 -1.238281 5.304688 -1.085938 5.296875 -0.953125 C 5.296875 -0.816406 5.296875 -0.675781 5.296875 -0.53125 C 5.285156 -0.363281 5.21875 -0.25 5.09375 -0.1875 C 4.96875 -0.125 4.796875 -0.0703125 4.578125 -0.03125 C 4.359375 0.0078125 4.140625 0.0390625 3.921875 0.0625 C 3.703125 0.0820312 3.515625 0.09375 3.359375 0.09375 Z M 3.359375 0.09375 "/></g></g><g style="fill:#ffffff;fill-opacity:1;"><g transform="translate(46.560153, 18.371801)"><path style="stroke:none" d="M 2.0625 0.09375 C 1.5 0.09375 1.046875 -0.0351562 0.703125 -0.296875 C 0.367188 -0.566406 0.203125 -1.015625 0.203125 -1.640625 C 0.203125 -2.191406 0.394531 -2.625 0.78125 -2.9375 C 1.175781 -3.257812 1.71875 -3.484375 2.40625 -3.609375 C 3.039062 -3.691406 3.484375 -3.78125 3.734375 -3.875 C 3.992188 -3.96875 4.125 -4.113281 4.125 -4.3125 C 4.125 -4.425781 4.039062 -4.535156 3.875 -4.640625 C 3.71875 -4.742188 3.445312 -4.796875 3.0625 -4.796875 C 2.726562 -4.796875 2.382812 -4.742188 2.03125 -4.640625 C 1.6875 -4.535156 1.378906 -4.363281 1.109375 -4.125 C 1.023438 -4.007812 0.929688 -3.976562 0.828125 -4.03125 C 0.722656 -4.082031 0.675781 -4.1875 0.6875 -4.34375 C 0.6875 -4.425781 0.691406 -4.539062 0.703125 -4.6875 C 0.722656 -4.832031 0.742188 -4.976562 0.765625 -5.125 C 0.785156 -5.269531 0.796875 -5.378906 0.796875 -5.453125 C 0.828125 -5.628906 0.90625 -5.742188 1.03125 -5.796875 C 1.632812 -5.984375 2.289062 -6.078125 3 -6.078125 C 3.851562 -6.078125 4.507812 -5.894531 4.96875 -5.53125 C 5.4375 -5.164062 5.707031 -4.585938 5.78125 -3.796875 C 5.800781 -3.515625 5.820312 -3.164062 5.84375 -2.75 C 5.863281 -2.34375 5.882812 -1.925781 5.90625 -1.5 C 5.9375 -1.070312 5.957031 -0.691406 5.96875 -0.359375 C 5.96875 -0.160156 5.863281 -0.046875 5.65625 -0.015625 C 5.582031 0.00390625 5.488281 0.0195312 5.375 0.03125 C 5.269531 0.0390625 5.164062 0.046875 5.0625 0.046875 C 4.976562 0.046875 4.867188 0.0390625 4.734375 0.03125 C 4.597656 0.0195312 4.484375 0.00390625 4.390625 -0.015625 C 4.296875 -0.0234375 4.21875 -0.0664062 4.15625 -0.140625 C 4.101562 -0.210938 4.082031 -0.296875 4.09375 -0.390625 C 4.113281 -0.460938 4.128906 -0.554688 4.140625 -0.671875 C 4.160156 -0.785156 4.175781 -0.90625 4.1875 -1.03125 C 4.195312 -1.125 4.171875 -1.179688 4.109375 -1.203125 C 4.046875 -1.222656 3.992188 -1.1875 3.953125 -1.09375 C 3.785156 -0.726562 3.523438 -0.4375 3.171875 -0.21875 C 2.816406 -0.0078125 2.445312 0.09375 2.0625 0.09375 Z M 2.8125 -1.28125 C 2.988281 -1.28125 3.175781 -1.328125 3.375 -1.421875 C 3.582031 -1.515625 3.753906 -1.648438 3.890625 -1.828125 C 4.035156 -2.015625 4.109375 -2.234375 4.109375 -2.484375 C 4.109375 -2.660156 4.054688 -2.804688 3.953125 -2.921875 C 3.847656 -3.035156 3.664062 -3.09375 3.40625 -3.09375 C 3.144531 -3.09375 2.894531 -3.046875 2.65625 -2.953125 C 2.425781 -2.859375 2.238281 -2.726562 2.09375 -2.5625 C 1.945312 -2.394531 1.875 -2.195312 1.875 -1.96875 C 1.875 -1.71875 1.945312 -1.539062 2.09375 -1.4375 C 2.238281 -1.332031 2.476562 -1.28125 2.8125 -1.28125 Z M 2.8125 -1.28125 "/></g></g><g style="fill:#ffffff;fill-opacity:1;"><g transform="translate(52.740232, 18.371801)"><path style="stroke:none" d="M 3.171875 2.625 C 2.898438 2.625 2.601562 2.613281 2.28125 2.59375 C 1.957031 2.570312 1.640625 2.539062 1.328125 2.5 C 1.023438 2.46875 0.757812 2.410156 0.53125 2.328125 C 0.34375 2.253906 0.257812 2.128906 0.28125 1.953125 L 0.390625 0.75 C 0.398438 0.625 0.453125 0.546875 0.546875 0.515625 C 0.640625 0.484375 0.722656 0.507812 0.796875 0.59375 C 1.054688 0.769531 1.367188 0.90625 1.734375 1 C 2.097656 1.09375 2.445312 1.140625 2.78125 1.140625 C 3.164062 1.140625 3.507812 1.066406 3.8125 0.921875 C 4.125 0.785156 4.367188 0.585938 4.546875 0.328125 C 4.734375 0.0664062 4.828125 -0.234375 4.828125 -0.578125 L 4.828125 -0.765625 C 4.828125 -0.898438 4.789062 -0.96875 4.71875 -0.96875 C 4.644531 -0.976562 4.578125 -0.925781 4.515625 -0.8125 C 4.316406 -0.5 4.050781 -0.269531 3.71875 -0.125 C 3.394531 0.0195312 3.03125 0.09375 2.625 0.09375 C 2.175781 0.09375 1.769531 -0.0195312 1.40625 -0.25 C 1.050781 -0.488281 0.769531 -0.835938 0.5625 -1.296875 C 0.351562 -1.753906 0.25 -2.316406 0.25 -2.984375 C 0.25 -3.640625 0.351562 -4.195312 0.5625 -4.65625 C 0.769531 -5.113281 1.050781 -5.460938 1.40625 -5.703125 C 1.769531 -5.953125 2.175781 -6.078125 2.625 -6.078125 C 3.03125 -6.078125 3.394531 -5.988281 3.71875 -5.8125 C 4.050781 -5.632812 4.320312 -5.382812 4.53125 -5.0625 C 4.582031 -4.96875 4.632812 -4.925781 4.6875 -4.9375 C 4.738281 -4.945312 4.757812 -5.015625 4.75 -5.140625 C 4.738281 -5.210938 4.722656 -5.300781 4.703125 -5.40625 C 4.691406 -5.507812 4.679688 -5.609375 4.671875 -5.703125 C 4.660156 -5.785156 4.675781 -5.847656 4.71875 -5.890625 C 4.769531 -5.941406 4.832031 -5.976562 4.90625 -6 C 4.976562 -6.007812 5.070312 -6.015625 5.1875 -6.015625 C 5.300781 -6.023438 5.410156 -6.03125 5.515625 -6.03125 C 5.617188 -6.03125 5.71875 -6.023438 5.8125 -6.015625 C 5.90625 -6.015625 5.988281 -6.007812 6.0625 -6 C 6.21875 -5.957031 6.304688 -5.863281 6.328125 -5.71875 C 6.398438 -5.070312 6.441406 -4.296875 6.453125 -3.390625 C 6.472656 -2.492188 6.484375 -1.507812 6.484375 -0.4375 C 6.484375 0.3125 6.335938 0.910156 6.046875 1.359375 C 5.765625 1.804688 5.375 2.128906 4.875 2.328125 C 4.382812 2.523438 3.816406 2.625 3.171875 2.625 Z M 3.3125 -1.203125 C 3.726562 -1.203125 4.078125 -1.359375 4.359375 -1.671875 C 4.640625 -1.992188 4.78125 -2.4375 4.78125 -3 C 4.78125 -3.550781 4.640625 -3.976562 4.359375 -4.28125 C 4.085938 -4.59375 3.738281 -4.753906 3.3125 -4.765625 C 2.875 -4.765625 2.515625 -4.609375 2.234375 -4.296875 C 1.960938 -3.984375 1.828125 -3.550781 1.828125 -3 C 1.828125 -2.4375 1.96875 -1.992188 2.25 -1.671875 C 2.53125 -1.359375 2.882812 -1.203125 3.3125 -1.203125 Z M 3.3125 -1.203125 "/></g></g><g style="fill:#ffffff;fill-opacity:1;"><g transform="translate(59.48214, 18.371801)"><path style="stroke:none" d="M 1.125 0.046875 C 1.0625 0.046875 0.96875 0.0390625 0.84375 0.03125 C 0.71875 0.0195312 0.609375 0.0078125 0.515625 0 C 0.453125 -0.0078125 0.394531 -0.0390625 0.34375 -0.09375 C 0.300781 -0.144531 0.28125 -0.21875 0.28125 -0.3125 C 0.28125 -0.945312 0.28125 -1.507812 0.28125 -2 C 0.28125 -2.5 0.285156 -2.953125 0.296875 -3.359375 C 0.304688 -3.765625 0.316406 -4.15625 0.328125 -4.53125 C 0.347656 -4.90625 0.375 -5.300781 0.40625 -5.71875 C 0.425781 -5.875 0.507812 -5.96875 0.65625 -6 C 0.726562 -6.007812 0.820312 -6.015625 0.9375 -6.015625 C 1.050781 -6.023438 1.15625 -6.03125 1.25 -6.03125 C 1.332031 -6.03125 1.441406 -6.023438 1.578125 -6.015625 C 1.710938 -6.015625 1.8125 -6.007812 1.875 -6 C 1.957031 -5.976562 2.019531 -5.941406 2.0625 -5.890625 C 2.113281 -5.835938 2.128906 -5.769531 2.109375 -5.6875 C 2.078125 -5.550781 2.046875 -5.425781 2.015625 -5.3125 C 1.992188 -5.207031 1.984375 -5.082031 1.984375 -4.9375 C 1.984375 -4.820312 2.007812 -4.753906 2.0625 -4.734375 C 2.125 -4.722656 2.175781 -4.773438 2.21875 -4.890625 C 2.394531 -5.304688 2.644531 -5.601562 2.96875 -5.78125 C 3.300781 -5.96875 3.671875 -6.0625 4.078125 -6.0625 C 4.242188 -6.0625 4.414062 -6.039062 4.59375 -6 C 4.78125 -5.96875 4.9375 -5.914062 5.0625 -5.84375 C 5.207031 -5.769531 5.28125 -5.660156 5.28125 -5.515625 C 5.28125 -5.285156 5.273438 -5.070312 5.265625 -4.875 C 5.265625 -4.675781 5.257812 -4.460938 5.25 -4.234375 C 5.238281 -4.085938 5.175781 -4 5.0625 -3.96875 C 4.957031 -3.945312 4.867188 -3.976562 4.796875 -4.0625 C 4.597656 -4.226562 4.390625 -4.34375 4.171875 -4.40625 C 3.953125 -4.46875 3.734375 -4.5 3.515625 -4.5 C 3.242188 -4.5 2.988281 -4.421875 2.75 -4.265625 C 2.507812 -4.117188 2.316406 -3.90625 2.171875 -3.625 C 2.023438 -3.34375 1.953125 -3.003906 1.953125 -2.609375 C 1.953125 -2.328125 1.957031 -2.035156 1.96875 -1.734375 C 1.988281 -1.441406 2.007812 -1.171875 2.03125 -0.921875 C 2.0625 -0.671875 2.078125 -0.46875 2.078125 -0.3125 C 2.085938 -0.21875 2.0625 -0.144531 2 -0.09375 C 1.945312 -0.0390625 1.890625 -0.00390625 1.828125 0.015625 C 1.742188 0.015625 1.632812 0.0195312 1.5 0.03125 C 1.363281 0.0390625 1.238281 0.046875 1.125 0.046875 Z M 1.125 0.046875 "/></g></g><g style="fill:#ffffff;fill-opacity:1;"><g transform="translate(64.516542, 18.371801)"><path style="stroke:none" d="M 2.0625 0.09375 C 1.5 0.09375 1.046875 -0.0351562 0.703125 -0.296875 C 0.367188 -0.566406 0.203125 -1.015625 0.203125 -1.640625 C 0.203125 -2.191406 0.394531 -2.625 0.78125 -2.9375 C 1.175781 -3.257812 1.71875 -3.484375 2.40625 -3.609375 C 3.039062 -3.691406 3.484375 -3.78125 3.734375 -3.875 C 3.992188 -3.96875 4.125 -4.113281 4.125 -4.3125 C 4.125 -4.425781 4.039062 -4.535156 3.875 -4.640625 C 3.71875 -4.742188 3.445312 -4.796875 3.0625 -4.796875 C 2.726562 -4.796875 2.382812 -4.742188 2.03125 -4.640625 C 1.6875 -4.535156 1.378906 -4.363281 1.109375 -4.125 C 1.023438 -4.007812 0.929688 -3.976562 0.828125 -4.03125 C 0.722656 -4.082031 0.675781 -4.1875 0.6875 -4.34375 C 0.6875 -4.425781 0.691406 -4.539062 0.703125 -4.6875 C 0.722656 -4.832031 0.742188 -4.976562 0.765625 -5.125 C 0.785156 -5.269531 0.796875 -5.378906 0.796875 -5.453125 C 0.828125 -5.628906 0.90625 -5.742188 1.03125 -5.796875 C 1.632812 -5.984375 2.289062 -6.078125 3 -6.078125 C 3.851562 -6.078125 4.507812 -5.894531 4.96875 -5.53125 C 5.4375 -5.164062 5.707031 -4.585938 5.78125 -3.796875 C 5.800781 -3.515625 5.820312 -3.164062 5.84375 -2.75 C 5.863281 -2.34375 5.882812 -1.925781 5.90625 -1.5 C 5.9375 -1.070312 5.957031 -0.691406 5.96875 -0.359375 C 5.96875 -0.160156 5.863281 -0.046875 5.65625 -0.015625 C 5.582031 0.00390625 5.488281 0.0195312 5.375 0.03125 C 5.269531 0.0390625 5.164062 0.046875 5.0625 0.046875 C 4.976562 0.046875 4.867188 0.0390625 4.734375 0.03125 C 4.597656 0.0195312 4.484375 0.00390625 4.390625 -0.015625 C 4.296875 -0.0234375 4.21875 -0.0664062 4.15625 -0.140625 C 4.101562 -0.210938 4.082031 -0.296875 4.09375 -0.390625 C 4.113281 -0.460938 4.128906 -0.554688 4.140625 -0.671875 C 4.160156 -0.785156 4.175781 -0.90625 4.1875 -1.03125 C 4.195312 -1.125 4.171875 -1.179688 4.109375 -1.203125 C 4.046875 -1.222656 3.992188 -1.1875 3.953125 -1.09375 C 3.785156 -0.726562 3.523438 -0.4375 3.171875 -0.21875 C 2.816406 -0.0078125 2.445312 0.09375 2.0625 0.09375 Z M 2.8125 -1.28125 C 2.988281 -1.28125 3.175781 -1.328125 3.375 -1.421875 C 3.582031 -1.515625 3.753906 -1.648438 3.890625 -1.828125 C 4.035156 -2.015625 4.109375 -2.234375 4.109375 -2.484375 C 4.109375 -2.660156 4.054688 -2.804688 3.953125 -2.921875 C 3.847656 -3.035156 3.664062 -3.09375 3.40625 -3.09375 C 3.144531 -3.09375 2.894531 -3.046875 2.65625 -2.953125 C 2.425781 -2.859375 2.238281 -2.726562 2.09375 -2.5625 C 1.945312 -2.394531 1.875 -2.195312 1.875 -1.96875 C 1.875 -1.71875 1.945312 -1.539062 2.09375 -1.4375 C 2.238281 -1.332031 2.476562 -1.28125 2.8125 -1.28125 Z M 2.8125 -1.28125 "/></g></g><g style="fill:#ffffff;fill-opacity:1;"><g transform="translate(70.740688, 18.371801)"><path style="stroke:none" d="M 1.109375 0.046875 C 1.046875 0.046875 0.953125 0.0390625 0.828125 0.03125 C 0.703125 0.03125 0.59375 0.0195312 0.5 0 C 0.4375 -0.0078125 0.378906 -0.0390625 0.328125 -0.09375 C 0.285156 -0.15625 0.265625 -0.226562 0.265625 -0.3125 C 0.265625 -0.988281 0.265625 -1.570312 0.265625 -2.0625 C 0.273438 -2.5625 0.285156 -3.007812 0.296875 -3.40625 C 0.304688 -3.800781 0.316406 -4.179688 0.328125 -4.546875 C 0.347656 -4.910156 0.375 -5.300781 0.40625 -5.71875 C 0.425781 -5.875 0.507812 -5.96875 0.65625 -6 C 0.789062 -6.019531 0.976562 -6.03125 1.21875 -6.03125 C 1.3125 -6.03125 1.410156 -6.023438 1.515625 -6.015625 C 1.628906 -6.015625 1.722656 -6.007812 1.796875 -6 C 1.867188 -5.976562 1.925781 -5.945312 1.96875 -5.90625 C 2.019531 -5.863281 2.039062 -5.800781 2.03125 -5.71875 C 2.007812 -5.59375 1.984375 -5.476562 1.953125 -5.375 C 1.929688 -5.28125 1.921875 -5.191406 1.921875 -5.109375 C 1.921875 -4.984375 1.945312 -4.910156 2 -4.890625 C 2.050781 -4.878906 2.101562 -4.929688 2.15625 -5.046875 C 2.3125 -5.367188 2.53125 -5.617188 2.8125 -5.796875 C 3.09375 -5.984375 3.390625 -6.078125 3.703125 -6.078125 C 4.035156 -6.078125 4.335938 -6 4.609375 -5.84375 C 4.878906 -5.695312 5.09375 -5.472656 5.25 -5.171875 C 5.382812 -4.847656 5.53125 -4.847656 5.6875 -5.171875 C 5.84375 -5.441406 6.0625 -5.660156 6.34375 -5.828125 C 6.632812 -5.992188 6.96875 -6.078125 7.34375 -6.078125 C 7.707031 -6.078125 8.039062 -5.96875 8.34375 -5.75 C 8.65625 -5.539062 8.90625 -5.226562 9.09375 -4.8125 C 9.289062 -4.40625 9.398438 -3.898438 9.421875 -3.296875 C 9.441406 -2.890625 9.460938 -2.425781 9.484375 -1.90625 C 9.503906 -1.394531 9.515625 -0.863281 9.515625 -0.3125 C 9.515625 -0.21875 9.488281 -0.144531 9.4375 -0.09375 C 9.394531 -0.0390625 9.335938 -0.0078125 9.265625 0 C 9.171875 0.0078125 9.070312 0.0195312 8.96875 0.03125 C 8.875 0.0390625 8.796875 0.046875 8.734375 0.046875 C 8.660156 0.046875 8.550781 0.0390625 8.40625 0.03125 C 8.269531 0.03125 8.148438 0.0195312 8.046875 0 C 7.972656 -0.0078125 7.90625 -0.0390625 7.84375 -0.09375 C 7.789062 -0.144531 7.769531 -0.21875 7.78125 -0.3125 C 7.800781 -0.582031 7.816406 -0.882812 7.828125 -1.21875 C 7.835938 -1.550781 7.84375 -1.875 7.84375 -2.1875 C 7.851562 -2.5 7.851562 -2.75 7.84375 -2.9375 C 7.832031 -3.445312 7.726562 -3.847656 7.53125 -4.140625 C 7.332031 -4.429688 7.070312 -4.578125 6.75 -4.578125 C 6.46875 -4.578125 6.21875 -4.425781 6 -4.125 C 5.789062 -3.820312 5.6875 -3.398438 5.6875 -2.859375 C 5.6875 -2.484375 5.691406 -2.066406 5.703125 -1.609375 C 5.722656 -1.160156 5.742188 -0.726562 5.765625 -0.3125 C 5.785156 -0.21875 5.765625 -0.144531 5.703125 -0.09375 C 5.648438 -0.0390625 5.585938 -0.0078125 5.515625 0 C 5.421875 0.0078125 5.320312 0.0195312 5.21875 0.03125 C 5.113281 0.0390625 5.03125 0.046875 4.96875 0.046875 C 4.894531 0.046875 4.785156 0.0390625 4.640625 0.03125 C 4.492188 0.03125 4.367188 0.0195312 4.265625 0 C 4.191406 -0.0078125 4.128906 -0.0390625 4.078125 -0.09375 C 4.023438 -0.144531 4.003906 -0.21875 4.015625 -0.3125 C 4.023438 -0.59375 4.035156 -0.890625 4.046875 -1.203125 C 4.054688 -1.523438 4.0625 -1.835938 4.0625 -2.140625 C 4.070312 -2.441406 4.070312 -2.707031 4.0625 -2.9375 C 4.050781 -3.445312 3.945312 -3.847656 3.75 -4.140625 C 3.550781 -4.429688 3.289062 -4.578125 2.96875 -4.578125 C 2.675781 -4.578125 2.425781 -4.421875 2.21875 -4.109375 C 2.019531 -3.796875 1.914062 -3.367188 1.90625 -2.828125 C 1.894531 -2.421875 1.890625 -2.007812 1.890625 -1.59375 C 1.890625 -1.175781 1.898438 -0.75 1.921875 -0.3125 C 1.929688 -0.21875 1.910156 -0.144531 1.859375 -0.09375 C 1.804688 -0.0390625 1.75 -0.0078125 1.6875 0 C 1.59375 0.0078125 1.484375 0.0195312 1.359375 0.03125 C 1.242188 0.0390625 1.160156 0.046875 1.109375 0.046875 Z M 1.109375 0.046875 "/></g></g><g clip-rule="nonzero" clip-path="url(#e184eae242)"><path style=" stroke:none;fill-rule:nonzero;fill:#ffffff;fill-opacity:1;" d="M 12.34375 7.90625 L 19.683594 7.90625 C 20.515625 7.90625 21.265625 8.242188 21.8125 8.789062 C 22.355469 9.332031 22.699219 10.089844 22.699219 10.914062 L 22.699219 18.253906 C 22.699219 19.085938 22.355469 19.835938 21.8125 20.382812 C 21.265625 20.925781 20.515625 21.269531 19.683594 21.269531 L 12.34375 21.269531 C 11.519531 21.269531 10.761719 20.925781 10.222656 20.382812 C 9.671875 19.835938 9.335938 19.085938 9.335938 18.253906 L 9.335938 10.914062 C 9.335938 10.089844 9.671875 9.332031 10.222656 8.789062 C 10.761719 8.242188 11.519531 7.90625 12.34375 7.90625 Z M 19.683594 9.097656 L 12.34375 9.097656 C 11.839844 9.097656 11.386719 9.300781 11.058594 9.628906 C 10.730469 9.957031 10.527344 10.410156 10.527344 10.914062 L 10.527344 18.253906 C 10.527344 18.753906 10.730469 19.210938 11.058594 19.539062 C 11.386719 19.875 11.839844 20.078125 12.34375 20.078125 L 19.683594 20.078125 C 20.1875 20.078125 20.640625 19.875 20.96875 19.539062 C 21.304688 19.210938 21.507812 18.753906 21.507812 18.253906 L 21.507812 10.914062 C 21.507812 10.410156 21.304688 9.957031 20.96875 9.628906 C 20.640625 9.300781 20.1875 9.097656 19.683594 9.097656 Z M 19.683594 9.097656 "/></g><path style=" stroke:none;fill-rule:nonzero;fill:#ffffff;fill-opacity:1;" d="M 19.761719 10.238281 C 19.925781 10.238281 20.085938 10.300781 20.1875 10.410156 C 20.296875 10.519531 20.367188 10.667969 20.367188 10.832031 C 20.367188 11 20.296875 11.15625 20.1875 11.257812 C 20.085938 11.367188 19.925781 11.4375 19.761719 11.4375 C 19.597656 11.4375 19.449219 11.367188 19.339844 11.257812 C 19.230469 11.15625 19.167969 11 19.167969 10.832031 C 19.167969 10.667969 19.230469 10.519531 19.339844 10.410156 C 19.449219 10.300781 19.597656 10.238281 19.761719 10.238281 Z M 19.761719 10.238281 "/><path style=" stroke:none;fill-rule:nonzero;fill:#ffffff;fill-opacity:1;" d="M 16.015625 11.34375 C 16.914062 11.34375 17.71875 11.710938 18.308594 12.289062 C 18.894531 12.878906 19.261719 13.691406 19.261719 14.582031 C 19.261719 15.484375 18.894531 16.289062 18.308594 16.875 C 17.71875 17.464844 16.914062 17.832031 16.015625 17.832031 C 15.121094 17.832031 14.308594 17.464844 13.71875 16.875 C 13.140625 16.289062 12.773438 15.484375 12.773438 14.582031 C 12.773438 13.691406 13.140625 12.878906 13.71875 12.289062 C 14.308594 11.710938 15.121094 11.34375 16.015625 11.34375 Z M 17.460938 13.144531 C 17.09375 12.773438 16.578125 12.539062 16.015625 12.539062 C 15.449219 12.539062 14.941406 12.773438 14.574219 13.144531 C 14.207031 13.511719 13.972656 14.019531 13.972656 14.582031 C 13.972656 15.148438 14.207031 15.664062 14.574219 16.03125 C 14.941406 16.398438 15.449219 16.625 16.015625 16.625 C 16.578125 16.625 17.09375 16.398438 17.460938 16.03125 C 17.828125 15.664062 18.058594 15.148438 18.058594 14.582031 C 18.058594 14.019531 17.828125 13.511719 17.460938 13.144531 Z M 17.460938 13.144531 "/></g></svg>