<svg xmlns="http://www.w3.org/2000/svg" xmlns:xlink="http://www.w3.org/1999/xlink" width="120" zoomAndPan="magnify" viewBox="0 0 90 30.000001" height="40" preserveAspectRatio="xMidYMid meet" version="1.2"><defs><clipPath id="7014556b3e"><path d="M 1.453125 0 L 88.546875 0 L 88.546875 29.03125 L 1.453125 29.03125 Z M 1.453125 0 "/></clipPath><clipPath id="84aa8b7d40"><path d="M 9.773438 6.820312 L 25.015625 6.820312 L 25.015625 22.0625 L 9.773438 22.0625 Z M 9.773438 6.820312 "/></clipPath></defs><g id="21c2fb4ffb"><g clip-rule="nonzero" clip-path="url(#7014556b3e)"><path style=" stroke:none;fill-rule:nonzero;fill:#ffffff;fill-opacity:1;" d="M 1.453125 0 L 88.546875 0 L 88.546875 29.03125 L 1.453125 29.03125 Z M 1.453125 0 "/><path style=" stroke:none;fill-rule:nonzero;fill:#1475b1;fill-opacity:1;" d="M 1.453125 0 L 88.546875 0 L 88.546875 29.03125 L 1.453125 29.03125 Z M 1.453125 0 "/></g><g style="fill:#ffffff;fill-opacity:1;"><g transform="translate(27.807453, 18.26447)"><path style="stroke:none" d="M 4.09375 0.046875 C 3.851562 0.046875 3.570312 0.046875 3.25 0.046875 C 2.925781 0.046875 2.59375 0.0390625 2.25 0.03125 C 1.90625 0.03125 1.59375 0.0234375 1.3125 0.015625 C 1.039062 0.015625 0.84375 0.0078125 0.71875 0 C 0.476562 -0.0195312 0.359375 -0.128906 0.359375 -0.328125 C 0.359375 -0.972656 0.363281 -1.664062 0.375 -2.40625 C 0.394531 -3.15625 0.414062 -3.910156 0.4375 -4.671875 C 0.457031 -5.429688 0.484375 -6.164062 0.515625 -6.875 C 0.554688 -7.582031 0.59375 -8.222656 0.625 -8.796875 C 0.632812 -8.890625 0.671875 -8.957031 0.734375 -9 C 0.804688 -9.050781 0.882812 -9.082031 0.96875 -9.09375 C 1.164062 -9.113281 1.328125 -9.125 1.453125 -9.125 C 1.578125 -9.132812 1.707031 -9.140625 1.84375 -9.140625 C 1.925781 -9.140625 2.039062 -9.132812 2.1875 -9.125 C 2.34375 -9.113281 2.472656 -9.101562 2.578125 -9.09375 C 2.679688 -9.082031 2.765625 -9.039062 2.828125 -8.96875 C 2.898438 -8.90625 2.921875 -8.820312 2.890625 -8.71875 C 2.734375 -7.957031 2.582031 -7.128906 2.4375 -6.234375 C 2.289062 -5.347656 2.222656 -4.347656 2.234375 -3.234375 C 2.242188 -2.640625 2.445312 -2.207031 2.84375 -1.9375 C 3.25 -1.664062 3.820312 -1.53125 4.5625 -1.53125 C 5.113281 -1.53125 5.566406 -1.578125 5.921875 -1.671875 C 6.273438 -1.773438 6.566406 -1.9375 6.796875 -2.15625 C 7.035156 -2.375 7.242188 -2.65625 7.421875 -3 C 7.492188 -3.144531 7.597656 -3.210938 7.734375 -3.203125 C 7.878906 -3.191406 7.957031 -3.097656 7.96875 -2.921875 C 7.988281 -2.796875 8.003906 -2.613281 8.015625 -2.375 C 8.035156 -2.132812 8.050781 -1.875 8.0625 -1.59375 C 8.082031 -1.320312 8.097656 -1.0625 8.109375 -0.8125 C 8.117188 -0.570312 8.128906 -0.390625 8.140625 -0.265625 C 8.140625 -0.109375 8.050781 -0.0195312 7.875 0 C 7.644531 0.0078125 7.367188 0.015625 7.046875 0.015625 C 6.722656 0.0234375 6.378906 0.03125 6.015625 0.03125 C 5.660156 0.0390625 5.3125 0.046875 4.96875 0.046875 C 4.632812 0.046875 4.34375 0.046875 4.09375 0.046875 Z M 4.09375 0.046875 "/></g></g><g style="fill:#ffffff;fill-opacity:1;"><g transform="translate(36.199167, 18.26447)"><path style="stroke:none" d="M 1.40625 -7.734375 C 1.082031 -7.734375 0.816406 -7.820312 0.609375 -8 C 0.410156 -8.175781 0.3125 -8.394531 0.3125 -8.65625 C 0.3125 -8.9375 0.410156 -9.160156 0.609375 -9.328125 C 0.816406 -9.503906 1.082031 -9.59375 1.40625 -9.59375 C 1.726562 -9.59375 1.988281 -9.503906 2.1875 -9.328125 C 2.394531 -9.160156 2.5 -8.9375 2.5 -8.65625 C 2.5 -8.394531 2.394531 -8.175781 2.1875 -8 C 1.988281 -7.820312 1.726562 -7.734375 1.40625 -7.734375 Z M 1.421875 0.046875 C 1.359375 0.046875 1.25 0.0390625 1.09375 0.03125 C 0.9375 0.03125 0.800781 0.0195312 0.6875 0 C 0.613281 -0.0195312 0.546875 -0.0625 0.484375 -0.125 C 0.429688 -0.1875 0.40625 -0.269531 0.40625 -0.375 C 0.40625 -1.125 0.40625 -1.785156 0.40625 -2.359375 C 0.414062 -2.941406 0.421875 -3.472656 0.421875 -3.953125 C 0.429688 -4.429688 0.445312 -4.894531 0.46875 -5.34375 C 0.488281 -5.789062 0.515625 -6.253906 0.546875 -6.734375 C 0.554688 -6.847656 0.582031 -6.925781 0.625 -6.96875 C 0.664062 -7.019531 0.726562 -7.050781 0.8125 -7.0625 C 0.90625 -7.082031 1.015625 -7.09375 1.140625 -7.09375 C 1.273438 -7.101562 1.375 -7.109375 1.4375 -7.109375 C 1.5 -7.109375 1.585938 -7.101562 1.703125 -7.09375 C 1.816406 -7.09375 1.914062 -7.082031 2 -7.0625 C 2.082031 -7.039062 2.144531 -7.007812 2.1875 -6.96875 C 2.238281 -6.925781 2.265625 -6.847656 2.265625 -6.734375 C 2.304688 -6.253906 2.332031 -5.789062 2.34375 -5.34375 C 2.363281 -4.894531 2.378906 -4.429688 2.390625 -3.953125 C 2.398438 -3.472656 2.40625 -2.941406 2.40625 -2.359375 C 2.414062 -1.785156 2.421875 -1.117188 2.421875 -0.359375 C 2.421875 -0.253906 2.390625 -0.171875 2.328125 -0.109375 C 2.273438 -0.0546875 2.207031 -0.0195312 2.125 0 C 2.007812 0.0195312 1.878906 0.03125 1.734375 0.03125 C 1.597656 0.0390625 1.492188 0.046875 1.421875 0.046875 Z M 1.421875 0.046875 "/></g></g><g style="fill:#ffffff;fill-opacity:1;"><g transform="translate(39.018051, 18.26447)"><path style="stroke:none" d="M 1.359375 0.046875 C 1.242188 0.046875 1.117188 0.0390625 0.984375 0.03125 C 0.847656 0.03125 0.726562 0.0195312 0.625 0 C 0.539062 -0.0195312 0.46875 -0.0546875 0.40625 -0.109375 C 0.351562 -0.171875 0.332031 -0.257812 0.34375 -0.375 C 0.34375 -1.164062 0.34375 -1.847656 0.34375 -2.421875 C 0.34375 -3.003906 0.351562 -3.53125 0.375 -4 C 0.394531 -4.46875 0.414062 -4.914062 0.4375 -5.34375 C 0.46875 -5.78125 0.507812 -6.238281 0.5625 -6.71875 C 0.582031 -6.925781 0.675781 -7.039062 0.84375 -7.0625 C 0.9375 -7.082031 1.039062 -7.09375 1.15625 -7.09375 C 1.269531 -7.101562 1.382812 -7.109375 1.5 -7.109375 C 1.613281 -7.109375 1.726562 -7.101562 1.84375 -7.09375 C 1.96875 -7.09375 2.09375 -7.082031 2.21875 -7.0625 C 2.300781 -7.050781 2.367188 -7.015625 2.421875 -6.953125 C 2.484375 -6.890625 2.503906 -6.8125 2.484375 -6.71875 C 2.441406 -6.601562 2.410156 -6.488281 2.390625 -6.375 C 2.367188 -6.257812 2.351562 -6.160156 2.34375 -6.078125 C 2.34375 -5.929688 2.367188 -5.847656 2.421875 -5.828125 C 2.472656 -5.816406 2.539062 -5.875 2.625 -6 C 2.925781 -6.414062 3.25 -6.710938 3.59375 -6.890625 C 3.945312 -7.078125 4.347656 -7.171875 4.796875 -7.171875 C 5.328125 -7.171875 5.796875 -7.03125 6.203125 -6.75 C 6.617188 -6.476562 6.945312 -6.082031 7.1875 -5.5625 C 7.4375 -5.050781 7.578125 -4.4375 7.609375 -3.71875 C 7.628906 -3.382812 7.644531 -3.054688 7.65625 -2.734375 C 7.664062 -2.421875 7.675781 -2.078125 7.6875 -1.703125 C 7.695312 -1.328125 7.703125 -0.882812 7.703125 -0.375 C 7.703125 -0.257812 7.671875 -0.171875 7.609375 -0.109375 C 7.554688 -0.0546875 7.484375 -0.0195312 7.390625 0 C 7.285156 0.0195312 7.160156 0.03125 7.015625 0.03125 C 6.878906 0.0390625 6.78125 0.046875 6.71875 0.046875 C 6.632812 0.046875 6.507812 0.0390625 6.34375 0.03125 C 6.1875 0.03125 6.050781 0.0195312 5.9375 0 C 5.84375 -0.0195312 5.765625 -0.0546875 5.703125 -0.109375 C 5.640625 -0.171875 5.613281 -0.253906 5.625 -0.359375 C 5.65625 -0.660156 5.675781 -0.988281 5.6875 -1.34375 C 5.707031 -1.707031 5.722656 -2.054688 5.734375 -2.390625 C 5.742188 -2.734375 5.742188 -3.019531 5.734375 -3.25 C 5.722656 -3.9375 5.5625 -4.484375 5.25 -4.890625 C 4.945312 -5.304688 4.53125 -5.515625 4 -5.515625 C 3.5 -5.515625 3.082031 -5.304688 2.75 -4.890625 C 2.425781 -4.472656 2.265625 -3.914062 2.265625 -3.21875 C 2.273438 -2.84375 2.289062 -2.394531 2.3125 -1.875 C 2.332031 -1.351562 2.367188 -0.847656 2.421875 -0.359375 C 2.441406 -0.253906 2.421875 -0.171875 2.359375 -0.109375 C 2.296875 -0.0546875 2.21875 -0.0195312 2.125 0 C 2.03125 0.0195312 1.90625 0.03125 1.75 0.03125 C 1.59375 0.0390625 1.460938 0.046875 1.359375 0.046875 Z M 1.359375 0.046875 "/></g></g><g style="fill:#ffffff;fill-opacity:1;"><g transform="translate(47.020048, 18.26447)"><path style="stroke:none" d="M 1.4375 0.046875 C 1.34375 0.046875 1.210938 0.0390625 1.046875 0.03125 C 0.890625 0.03125 0.757812 0.0195312 0.65625 0 C 0.457031 -0.0390625 0.359375 -0.160156 0.359375 -0.359375 C 0.359375 -1.117188 0.363281 -1.898438 0.375 -2.703125 C 0.382812 -3.515625 0.394531 -4.3125 0.40625 -5.09375 C 0.414062 -5.875 0.4375 -6.601562 0.46875 -7.28125 C 0.5 -7.957031 0.535156 -8.539062 0.578125 -9.03125 C 0.597656 -9.21875 0.703125 -9.320312 0.890625 -9.34375 C 0.984375 -9.363281 1.09375 -9.378906 1.21875 -9.390625 C 1.34375 -9.398438 1.457031 -9.40625 1.5625 -9.40625 C 1.675781 -9.40625 1.816406 -9.398438 1.984375 -9.390625 C 2.148438 -9.378906 2.273438 -9.363281 2.359375 -9.34375 C 2.453125 -9.332031 2.523438 -9.289062 2.578125 -9.21875 C 2.640625 -9.144531 2.664062 -9.0625 2.65625 -8.96875 C 2.613281 -8.6875 2.5625 -8.316406 2.5 -7.859375 C 2.445312 -7.410156 2.398438 -6.945312 2.359375 -6.46875 C 2.316406 -5.988281 2.296875 -5.5625 2.296875 -5.1875 C 2.296875 -4.96875 2.351562 -4.785156 2.46875 -4.640625 C 2.582031 -4.503906 2.71875 -4.4375 2.875 -4.4375 C 3.269531 -4.4375 3.640625 -4.546875 3.984375 -4.765625 C 4.328125 -4.992188 4.609375 -5.28125 4.828125 -5.625 C 5.054688 -5.976562 5.179688 -6.347656 5.203125 -6.734375 C 5.203125 -6.910156 5.300781 -7.019531 5.5 -7.0625 C 5.625 -7.082031 5.753906 -7.09375 5.890625 -7.09375 C 6.035156 -7.101562 6.160156 -7.109375 6.265625 -7.109375 C 6.367188 -7.109375 6.472656 -7.109375 6.578125 -7.109375 C 6.679688 -7.109375 6.796875 -7.09375 6.921875 -7.0625 C 7.140625 -7.019531 7.242188 -6.910156 7.234375 -6.734375 C 7.222656 -6.222656 7.140625 -5.769531 6.984375 -5.375 C 6.828125 -4.988281 6.550781 -4.671875 6.15625 -4.421875 C 5.769531 -4.171875 5.222656 -3.988281 4.515625 -3.875 C 4.398438 -3.863281 4.34375 -3.828125 4.34375 -3.765625 C 4.34375 -3.703125 4.398438 -3.664062 4.515625 -3.65625 C 5.296875 -3.550781 5.898438 -3.363281 6.328125 -3.09375 C 6.765625 -2.820312 7.078125 -2.457031 7.265625 -2 C 7.460938 -1.539062 7.585938 -0.976562 7.640625 -0.3125 C 7.648438 -0.132812 7.546875 -0.0234375 7.328125 0.015625 C 7.191406 0.0234375 7.066406 0.03125 6.953125 0.03125 C 6.835938 0.0390625 6.738281 0.046875 6.65625 0.046875 C 6.5625 0.046875 6.425781 0.0390625 6.25 0.03125 C 6.070312 0.03125 5.910156 0.0234375 5.765625 0.015625 C 5.566406 -0.0234375 5.457031 -0.128906 5.4375 -0.296875 C 5.425781 -0.710938 5.332031 -1.085938 5.15625 -1.421875 C 4.988281 -1.753906 4.773438 -2.039062 4.515625 -2.28125 C 4.265625 -2.519531 3.988281 -2.703125 3.6875 -2.828125 C 3.394531 -2.960938 3.101562 -3.03125 2.8125 -3.03125 C 2.675781 -3.03125 2.554688 -2.972656 2.453125 -2.859375 C 2.359375 -2.742188 2.304688 -2.597656 2.296875 -2.421875 C 2.285156 -2.078125 2.289062 -1.738281 2.3125 -1.40625 C 2.332031 -1.082031 2.367188 -0.734375 2.421875 -0.359375 C 2.441406 -0.253906 2.421875 -0.171875 2.359375 -0.109375 C 2.296875 -0.046875 2.21875 -0.00390625 2.125 0.015625 C 2.03125 0.0234375 1.914062 0.03125 1.78125 0.03125 C 1.644531 0.0390625 1.53125 0.046875 1.4375 0.046875 Z M 1.4375 0.046875 "/></g></g><g style="fill:#ffffff;fill-opacity:1;"><g transform="translate(54.385464, 18.26447)"><path style="stroke:none" d="M 4.015625 0.109375 C 3.253906 0.109375 2.585938 -0.0351562 2.015625 -0.328125 C 1.453125 -0.617188 1.015625 -1.039062 0.703125 -1.59375 C 0.390625 -2.144531 0.234375 -2.816406 0.234375 -3.609375 C 0.234375 -4.367188 0.378906 -5.015625 0.671875 -5.546875 C 0.972656 -6.078125 1.382812 -6.476562 1.90625 -6.75 C 2.425781 -7.03125 3.015625 -7.171875 3.671875 -7.171875 C 4.585938 -7.171875 5.328125 -6.960938 5.890625 -6.546875 C 6.460938 -6.140625 6.75 -5.535156 6.75 -4.734375 C 6.75 -4.316406 6.632812 -3.941406 6.40625 -3.609375 C 6.175781 -3.285156 5.875 -3.035156 5.5 -2.859375 C 5.125 -2.679688 4.71875 -2.59375 4.28125 -2.59375 C 3.925781 -2.59375 3.582031 -2.625 3.25 -2.6875 C 2.914062 -2.75 2.625 -2.847656 2.375 -2.984375 C 2.25 -3.066406 2.15625 -3.070312 2.09375 -3 C 2.03125 -2.925781 2.039062 -2.832031 2.125 -2.71875 C 2.226562 -2.46875 2.394531 -2.25 2.625 -2.0625 C 2.851562 -1.875 3.113281 -1.722656 3.40625 -1.609375 C 3.707031 -1.503906 4.003906 -1.453125 4.296875 -1.453125 C 4.628906 -1.453125 4.988281 -1.523438 5.375 -1.671875 C 5.757812 -1.816406 6.070312 -2.003906 6.3125 -2.234375 C 6.40625 -2.359375 6.503906 -2.398438 6.609375 -2.359375 C 6.722656 -2.316406 6.785156 -2.207031 6.796875 -2.03125 C 6.804688 -1.84375 6.8125 -1.648438 6.8125 -1.453125 C 6.820312 -1.253906 6.832031 -1.0625 6.84375 -0.875 C 6.84375 -0.707031 6.785156 -0.585938 6.671875 -0.515625 C 6.347656 -0.296875 5.9375 -0.132812 5.4375 -0.03125 C 4.945312 0.0625 4.472656 0.109375 4.015625 0.109375 Z M 3.78125 -3.59375 C 4.15625 -3.59375 4.445312 -3.6875 4.65625 -3.875 C 4.875 -4.0625 4.984375 -4.316406 4.984375 -4.640625 C 4.984375 -4.972656 4.882812 -5.234375 4.6875 -5.421875 C 4.488281 -5.617188 4.160156 -5.71875 3.703125 -5.71875 C 3.441406 -5.71875 3.1875 -5.660156 2.9375 -5.546875 C 2.6875 -5.441406 2.476562 -5.289062 2.3125 -5.09375 C 2.15625 -4.894531 2.078125 -4.648438 2.078125 -4.359375 C 2.078125 -4.191406 2.171875 -4.046875 2.359375 -3.921875 C 2.554688 -3.804688 2.785156 -3.722656 3.046875 -3.671875 C 3.304688 -3.617188 3.550781 -3.59375 3.78125 -3.59375 Z M 3.78125 -3.59375 "/></g></g><g style="fill:#ffffff;fill-opacity:1;"><g transform="translate(61.478151, 18.26447)"><path style="stroke:none" d="M 3.078125 0.109375 C 2.535156 0.109375 2.046875 -0.0234375 1.609375 -0.296875 C 1.179688 -0.578125 0.84375 -0.984375 0.59375 -1.515625 C 0.351562 -2.046875 0.234375 -2.707031 0.234375 -3.5 C 0.234375 -4.269531 0.351562 -4.925781 0.59375 -5.46875 C 0.84375 -6.019531 1.179688 -6.4375 1.609375 -6.71875 C 2.046875 -7.007812 2.535156 -7.15625 3.078125 -7.15625 C 3.535156 -7.15625 3.953125 -7.054688 4.328125 -6.859375 C 4.710938 -6.671875 5.023438 -6.390625 5.265625 -6.015625 C 5.328125 -5.910156 5.390625 -5.863281 5.453125 -5.875 C 5.515625 -5.894531 5.539062 -5.972656 5.53125 -6.109375 C 5.519531 -6.617188 5.476562 -7.128906 5.40625 -7.640625 C 5.34375 -8.148438 5.273438 -8.597656 5.203125 -8.984375 C 5.191406 -9.078125 5.21875 -9.15625 5.28125 -9.21875 C 5.34375 -9.289062 5.414062 -9.332031 5.5 -9.34375 C 5.582031 -9.363281 5.691406 -9.378906 5.828125 -9.390625 C 5.960938 -9.398438 6.109375 -9.40625 6.265625 -9.40625 C 6.410156 -9.40625 6.550781 -9.398438 6.6875 -9.390625 C 6.820312 -9.390625 6.9375 -9.375 7.03125 -9.34375 C 7.21875 -9.300781 7.316406 -9.195312 7.328125 -9.03125 C 7.378906 -8.570312 7.414062 -8.015625 7.4375 -7.359375 C 7.46875 -6.703125 7.488281 -5.984375 7.5 -5.203125 C 7.519531 -4.421875 7.53125 -3.617188 7.53125 -2.796875 C 7.539062 -1.972656 7.546875 -1.160156 7.546875 -0.359375 C 7.546875 -0.160156 7.453125 -0.0390625 7.265625 0 C 7.160156 0.0195312 7.03125 0.03125 6.875 0.03125 C 6.71875 0.0390625 6.601562 0.046875 6.53125 0.046875 C 6.425781 0.046875 6.296875 0.0390625 6.140625 0.03125 C 5.992188 0.03125 5.875 0.0234375 5.78125 0.015625 C 5.6875 -0.00390625 5.609375 -0.046875 5.546875 -0.109375 C 5.492188 -0.171875 5.476562 -0.253906 5.5 -0.359375 C 5.507812 -0.453125 5.519531 -0.539062 5.53125 -0.625 C 5.539062 -0.707031 5.550781 -0.804688 5.5625 -0.921875 C 5.570312 -1.054688 5.546875 -1.132812 5.484375 -1.15625 C 5.429688 -1.175781 5.367188 -1.125 5.296875 -1 C 5.054688 -0.644531 4.738281 -0.367188 4.34375 -0.171875 C 3.957031 0.015625 3.535156 0.109375 3.078125 0.109375 Z M 3.828125 -1.46875 C 4.316406 -1.46875 4.726562 -1.648438 5.0625 -2.015625 C 5.394531 -2.390625 5.5625 -2.910156 5.5625 -3.578125 C 5.5625 -4.222656 5.394531 -4.722656 5.0625 -5.078125 C 4.738281 -5.429688 4.328125 -5.609375 3.828125 -5.609375 C 3.316406 -5.609375 2.898438 -5.425781 2.578125 -5.0625 C 2.253906 -4.695312 2.09375 -4.195312 2.09375 -3.5625 C 2.09375 -2.90625 2.253906 -2.390625 2.578125 -2.015625 C 2.910156 -1.648438 3.328125 -1.46875 3.828125 -1.46875 Z M 3.828125 -1.46875 "/></g></g><g style="fill:#ffffff;fill-opacity:1;"><g transform="translate(69.38922, 18.26447)"><path style="stroke:none" d="M 1.40625 -7.734375 C 1.082031 -7.734375 0.816406 -7.820312 0.609375 -8 C 0.410156 -8.175781 0.3125 -8.394531 0.3125 -8.65625 C 0.3125 -8.9375 0.410156 -9.160156 0.609375 -9.328125 C 0.816406 -9.503906 1.082031 -9.59375 1.40625 -9.59375 C 1.726562 -9.59375 1.988281 -9.503906 2.1875 -9.328125 C 2.394531 -9.160156 2.5 -8.9375 2.5 -8.65625 C 2.5 -8.394531 2.394531 -8.175781 2.1875 -8 C 1.988281 -7.820312 1.726562 -7.734375 1.40625 -7.734375 Z M 1.421875 0.046875 C 1.359375 0.046875 1.25 0.0390625 1.09375 0.03125 C 0.9375 0.03125 0.800781 0.0195312 0.6875 0 C 0.613281 -0.0195312 0.546875 -0.0625 0.484375 -0.125 C 0.429688 -0.1875 0.40625 -0.269531 0.40625 -0.375 C 0.40625 -1.125 0.40625 -1.785156 0.40625 -2.359375 C 0.414062 -2.941406 0.421875 -3.472656 0.421875 -3.953125 C 0.429688 -4.429688 0.445312 -4.894531 0.46875 -5.34375 C 0.488281 -5.789062 0.515625 -6.253906 0.546875 -6.734375 C 0.554688 -6.847656 0.582031 -6.925781 0.625 -6.96875 C 0.664062 -7.019531 0.726562 -7.050781 0.8125 -7.0625 C 0.90625 -7.082031 1.015625 -7.09375 1.140625 -7.09375 C 1.273438 -7.101562 1.375 -7.109375 1.4375 -7.109375 C 1.5 -7.109375 1.585938 -7.101562 1.703125 -7.09375 C 1.816406 -7.09375 1.914062 -7.082031 2 -7.0625 C 2.082031 -7.039062 2.144531 -7.007812 2.1875 -6.96875 C 2.238281 -6.925781 2.265625 -6.847656 2.265625 -6.734375 C 2.304688 -6.253906 2.332031 -5.789062 2.34375 -5.34375 C 2.363281 -4.894531 2.378906 -4.429688 2.390625 -3.953125 C 2.398438 -3.472656 2.40625 -2.941406 2.40625 -2.359375 C 2.414062 -1.785156 2.421875 -1.117188 2.421875 -0.359375 C 2.421875 -0.253906 2.390625 -0.171875 2.328125 -0.109375 C 2.273438 -0.0546875 2.207031 -0.0195312 2.125 0 C 2.007812 0.0195312 1.878906 0.03125 1.734375 0.03125 C 1.597656 0.0390625 1.492188 0.046875 1.421875 0.046875 Z M 1.421875 0.046875 "/></g></g><g style="fill:#ffffff;fill-opacity:1;"><g transform="translate(72.208104, 18.26447)"><path style="stroke:none" d="M 1.359375 0.046875 C 1.242188 0.046875 1.117188 0.0390625 0.984375 0.03125 C 0.847656 0.03125 0.726562 0.0195312 0.625 0 C 0.539062 -0.0195312 0.46875 -0.0546875 0.40625 -0.109375 C 0.351562 -0.171875 0.332031 -0.257812 0.34375 -0.375 C 0.34375 -1.164062 0.34375 -1.847656 0.34375 -2.421875 C 0.34375 -3.003906 0.351562 -3.53125 0.375 -4 C 0.394531 -4.46875 0.414062 -4.914062 0.4375 -5.34375 C 0.46875 -5.78125 0.507812 -6.238281 0.5625 -6.71875 C 0.582031 -6.925781 0.675781 -7.039062 0.84375 -7.0625 C 0.9375 -7.082031 1.039062 -7.09375 1.15625 -7.09375 C 1.269531 -7.101562 1.382812 -7.109375 1.5 -7.109375 C 1.613281 -7.109375 1.726562 -7.101562 1.84375 -7.09375 C 1.96875 -7.09375 2.09375 -7.082031 2.21875 -7.0625 C 2.300781 -7.050781 2.367188 -7.015625 2.421875 -6.953125 C 2.484375 -6.890625 2.503906 -6.8125 2.484375 -6.71875 C 2.441406 -6.601562 2.410156 -6.488281 2.390625 -6.375 C 2.367188 -6.257812 2.351562 -6.160156 2.34375 -6.078125 C 2.34375 -5.929688 2.367188 -5.847656 2.421875 -5.828125 C 2.472656 -5.816406 2.539062 -5.875 2.625 -6 C 2.925781 -6.414062 3.25 -6.710938 3.59375 -6.890625 C 3.945312 -7.078125 4.347656 -7.171875 4.796875 -7.171875 C 5.328125 -7.171875 5.796875 -7.03125 6.203125 -6.75 C 6.617188 -6.476562 6.945312 -6.082031 7.1875 -5.5625 C 7.4375 -5.050781 7.578125 -4.4375 7.609375 -3.71875 C 7.628906 -3.382812 7.644531 -3.054688 7.65625 -2.734375 C 7.664062 -2.421875 7.675781 -2.078125 7.6875 -1.703125 C 7.695312 -1.328125 7.703125 -0.882812 7.703125 -0.375 C 7.703125 -0.257812 7.671875 -0.171875 7.609375 -0.109375 C 7.554688 -0.0546875 7.484375 -0.0195312 7.390625 0 C 7.285156 0.0195312 7.160156 0.03125 7.015625 0.03125 C 6.878906 0.0390625 6.78125 0.046875 6.71875 0.046875 C 6.632812 0.046875 6.507812 0.0390625 6.34375 0.03125 C 6.1875 0.03125 6.050781 0.0195312 5.9375 0 C 5.84375 -0.0195312 5.765625 -0.0546875 5.703125 -0.109375 C 5.640625 -0.171875 5.613281 -0.253906 5.625 -0.359375 C 5.65625 -0.660156 5.675781 -0.988281 5.6875 -1.34375 C 5.707031 -1.707031 5.722656 -2.054688 5.734375 -2.390625 C 5.742188 -2.734375 5.742188 -3.019531 5.734375 -3.25 C 5.722656 -3.9375 5.5625 -4.484375 5.25 -4.890625 C 4.945312 -5.304688 4.53125 -5.515625 4 -5.515625 C 3.5 -5.515625 3.082031 -5.304688 2.75 -4.890625 C 2.425781 -4.472656 2.265625 -3.914062 2.265625 -3.21875 C 2.273438 -2.84375 2.289062 -2.394531 2.3125 -1.875 C 2.332031 -1.351562 2.367188 -0.847656 2.421875 -0.359375 C 2.441406 -0.253906 2.421875 -0.171875 2.359375 -0.109375 C 2.296875 -0.0546875 2.21875 -0.0195312 2.125 0 C 2.03125 0.0195312 1.90625 0.03125 1.75 0.03125 C 1.59375 0.0390625 1.460938 0.046875 1.359375 0.046875 Z M 1.359375 0.046875 "/></g></g><g clip-rule="nonzero" clip-path="url(#84aa8b7d40)"><path style=" stroke:none;fill-rule:nonzero;fill:#ffffff;fill-opacity:1;" d="M 12.480469 6.820312 L 22.300781 6.820312 C 23.050781 6.820312 23.730469 7.125 24.222656 7.613281 C 24.710938 8.105469 25.015625 8.785156 25.015625 9.523438 L 25.015625 19.347656 C 25.015625 20.097656 24.710938 20.777344 24.222656 21.265625 C 23.730469 21.757812 23.050781 22.0625 22.300781 22.0625 L 12.480469 22.0625 C 11.738281 22.0625 11.058594 21.757812 10.570312 21.265625 C 10.078125 20.777344 9.773438 20.097656 9.773438 19.347656 L 9.773438 9.523438 C 9.773438 8.785156 10.078125 8.105469 10.570312 7.613281 C 11.058594 7.125 11.738281 6.820312 12.480469 6.820312 Z M 22.300781 7.613281 L 12.480469 7.613281 C 11.953125 7.613281 11.480469 7.828125 11.132812 8.175781 C 10.785156 8.523438 10.570312 9 10.570312 9.523438 L 10.570312 19.347656 C 10.570312 19.875 10.785156 20.355469 11.132812 20.703125 C 11.480469 21.042969 11.953125 21.265625 12.480469 21.265625 L 22.300781 21.265625 C 22.828125 21.265625 23.3125 21.042969 23.660156 20.703125 C 24 20.355469 24.222656 19.875 24.222656 19.347656 L 24.222656 9.523438 C 24.222656 9 24 8.523438 23.660156 8.175781 C 23.3125 7.828125 22.828125 7.613281 22.300781 7.613281 Z M 22.300781 7.613281 "/></g><path style=" stroke:none;fill-rule:nonzero;fill:#ffffff;fill-opacity:1;" d="M 12.558594 12.105469 L 14.035156 12.105469 C 14.203125 12.105469 14.355469 12.167969 14.460938 12.273438 C 14.578125 12.382812 14.660156 12.535156 14.660156 12.710938 L 14.660156 19.542969 C 14.660156 19.714844 14.578125 19.875 14.460938 19.980469 C 14.355469 20.089844 14.203125 20.152344 14.035156 20.152344 L 12.558594 20.152344 C 12.390625 20.152344 12.238281 20.089844 12.132812 19.980469 C 12.007812 19.875 11.933594 19.714844 11.933594 19.542969 L 11.933594 12.710938 C 11.933594 12.535156 12.007812 12.382812 12.132812 12.273438 C 12.238281 12.167969 12.390625 12.105469 12.558594 12.105469 Z M 13.863281 12.898438 L 12.730469 12.898438 L 12.730469 19.355469 L 13.863281 19.355469 Z M 13.863281 12.898438 "/><path style=" stroke:none;fill-rule:nonzero;fill:#ffffff;fill-opacity:1;" d="M 16.285156 12.085938 L 17.757812 12.085938 C 17.925781 12.085938 18.078125 12.160156 18.1875 12.257812 C 18.3125 12.375 18.382812 12.523438 18.382812 12.695312 L 18.382812 12.75 C 18.703125 12.535156 19.070312 12.375 19.445312 12.285156 C 19.960938 12.160156 20.507812 12.148438 21.007812 12.265625 C 21.515625 12.390625 21.988281 12.660156 22.320312 13.078125 C 22.648438 13.480469 22.847656 14.023438 22.847656 14.703125 L 22.847656 19.527344 C 22.847656 19.695312 22.773438 19.847656 22.660156 19.964844 C 22.550781 20.0625 22.398438 20.132812 22.230469 20.132812 L 20.75 20.132812 C 20.585938 20.132812 20.4375 20.0625 20.320312 19.964844 C 20.203125 19.847656 20.132812 19.695312 20.132812 19.527344 L 20.132812 15.714844 C 20.132812 15.355469 19.925781 15.132812 19.667969 15.035156 C 19.550781 14.988281 19.417969 14.972656 19.292969 14.972656 C 19.160156 14.972656 19.023438 15 18.898438 15.042969 C 18.605469 15.148438 18.382812 15.375 18.382812 15.714844 L 18.382812 19.542969 C 18.382812 19.714844 18.3125 19.875 18.1875 19.980469 C 18.078125 20.089844 17.925781 20.152344 17.757812 20.152344 L 16.285156 20.152344 C 16.113281 20.152344 15.960938 20.089844 15.855469 19.980469 C 15.738281 19.875 15.660156 19.714844 15.660156 19.542969 L 15.660156 12.695312 C 15.660156 12.523438 15.738281 12.375 15.855469 12.257812 C 15.960938 12.160156 16.113281 12.085938 16.285156 12.085938 Z M 17.585938 12.882812 L 16.453125 12.882812 L 16.453125 19.355469 L 17.585938 19.355469 L 17.585938 15.714844 C 17.585938 14.988281 18.042969 14.507812 18.632812 14.292969 C 18.835938 14.222656 19.0625 14.1875 19.285156 14.175781 C 19.507812 14.175781 19.730469 14.210938 19.945312 14.292969 C 20.5 14.5 20.925781 14.960938 20.925781 15.714844 L 20.925781 19.339844 L 22.050781 19.339844 L 22.050781 14.703125 C 22.050781 14.222656 21.917969 13.847656 21.703125 13.578125 C 21.480469 13.300781 21.167969 13.125 20.820312 13.035156 C 20.445312 12.945312 20.035156 12.953125 19.640625 13.050781 C 19.105469 13.1875 18.625 13.472656 18.3125 13.898438 C 18.238281 14.007812 18.121094 14.070312 17.980469 14.070312 C 17.765625 14.070312 17.585938 13.890625 17.585938 13.675781 Z M 17.585938 12.882812 "/><path style=" stroke:none;fill-rule:nonzero;fill:#ffffff;fill-opacity:1;" d="M 13.292969 8.722656 C 13.695312 8.722656 14.058594 8.890625 14.320312 9.148438 C 14.578125 9.410156 14.738281 9.773438 14.738281 10.167969 C 14.738281 10.570312 14.578125 10.925781 14.320312 11.195312 C 14.058594 11.453125 13.695312 11.613281 13.292969 11.613281 C 12.898438 11.613281 12.535156 11.453125 12.273438 11.195312 C 12.015625 10.925781 11.855469 10.570312 11.855469 10.167969 C 11.855469 9.773438 12.015625 9.410156 12.273438 9.148438 C 12.535156 8.890625 12.898438 8.722656 13.292969 8.722656 Z M 13.757812 9.710938 C 13.640625 9.597656 13.480469 9.523438 13.292969 9.523438 C 13.113281 9.523438 12.953125 9.597656 12.835938 9.710938 C 12.722656 9.828125 12.648438 9.988281 12.648438 10.167969 C 12.648438 10.347656 12.722656 10.515625 12.835938 10.632812 C 12.953125 10.75 13.113281 10.820312 13.292969 10.820312 C 13.480469 10.820312 13.640625 10.75 13.757812 10.632812 C 13.871094 10.515625 13.945312 10.347656 13.945312 10.167969 C 13.945312 9.988281 13.871094 9.828125 13.757812 9.710938 Z M 13.757812 9.710938 "/></g></svg>